<?xml version="1.0" encoding="UTF-8"?>
<svg width="256.79pt" height="175.59pt" version="1.1" viewBox="0 0 256.79 175.59" xmlns="http://www.w3.org/2000/svg" xmlns:xlink="http://www.w3.org/1999/xlink">
<defs>
<g id="d">
<path d="m6.2656-5.6719c0.48438-0.78125 0.90625-0.8125 1.2656-0.82812 0.125-0.015625 0.14062-0.17188 0.14062-0.1875 0-0.078125-0.0625-0.125-0.14062-0.125-0.25 0-0.54688 0.03125-0.8125 0.03125-0.32812 0-0.67188-0.03125-0.98438-0.03125-0.0625 0-0.1875 0-0.1875 0.1875 0 0.10938 0.078125 0.125 0.15625 0.125 0.26562 0.015625 0.45312 0.125 0.45312 0.32812 0 0.15625-0.14062 0.375-0.14062 0.375l-3.0625 4.875-0.6875-5.2812c0-0.17188 0.23438-0.29688 0.6875-0.29688 0.14062 0 0.25 0 0.25-0.20312 0-0.078125-0.078125-0.10938-0.125-0.10938-0.40625 0-0.82812 0.03125-1.25 0.03125h-0.54688c-0.17188 0-0.35938-0.03125-0.53125-0.03125-0.078125 0-0.1875 0-0.1875 0.1875 0 0.125 0.078125 0.125 0.25 0.125 0.54688 0 0.5625 0.09375 0.59375 0.34375l0.78125 6.1406c0.03125 0.20312 0.078125 0.23438 0.20312 0.23438 0.15625 0 0.20312-0.046875 0.28125-0.17188z"/>
</g>
<g id="c">
<path d="m3.7344-6.125c0.0625-0.23438 0.09375-0.32812 0.28125-0.35938 0.09375-0.015625 0.40625-0.015625 0.60938-0.015625 0.70312 0 1.8125 0 1.8125 0.98438 0 0.34375-0.15625 1.0312-0.54688 1.4219-0.26562 0.25-0.78125 0.57812-1.6875 0.57812h-1.1094zm1.4375 2.7344c1.0156-0.21875 2.1875-0.92188 2.1875-1.9219 0-0.85938-0.89062-1.5-2.2031-1.5h-2.8281c-0.20312 0-0.29688 0-0.29688 0.20312 0 0.10938 0.09375 0.10938 0.28125 0.10938 0.015625 0 0.20312 0 0.375 0.015625 0.1875 0.03125 0.26562 0.03125 0.26562 0.17188 0 0.03125 0 0.0625-0.03125 0.1875l-1.3438 5.3438c-0.09375 0.39062-0.10938 0.46875-0.90625 0.46875-0.17188 0-0.26562 0-0.26562 0.20312 0 0.10938 0.125 0.10938 0.14062 0.10938 0.28125 0 0.98438-0.03125 1.25-0.03125 0.28125 0 1 0.03125 1.2812 0.03125 0.078125 0 0.1875 0 0.1875-0.20312 0-0.10938-0.078125-0.10938-0.28125-0.10938-0.35938 0-0.64062 0-0.64062-0.17188 0-0.0625 0.015625-0.10938 0.03125-0.17188l0.65625-2.6406h1.1875c0.90625 0 1.0781 0.5625 1.0781 0.90625 0 0.14062-0.078125 0.45312-0.14062 0.6875-0.0625 0.28125-0.15625 0.64062-0.15625 0.84375 0 1.0781 1.2031 1.0781 1.3281 1.0781 0.84375 0 1.2031-1 1.2031-1.1406 0-0.125-0.10938-0.125-0.125-0.125-0.09375 0-0.10938 0.0625-0.125 0.14062-0.25 0.73438-0.6875 0.90625-0.90625 0.90625-0.32812 0-0.40625-0.21875-0.40625-0.60938 0-0.3125 0.0625-0.8125 0.10938-1.1406 0.015625-0.14062 0.03125-0.32812 0.03125-0.46875 0-0.76562-0.67188-1.0781-0.9375-1.1719z"/>
</g>
<g id="b">
<path d="m7.5781-6.9219c0-0.03125-0.015625-0.10938-0.10938-0.10938-0.03125 0-0.046875 0.015625-0.15625 0.125l-0.6875 0.76562c-0.09375-0.14062-0.54688-0.89062-1.6562-0.89062-2.2344 0-4.4688 2.2031-4.4688 4.5156 0 1.6406 1.1719 2.7344 2.7031 2.7344 0.85938 0 1.625-0.39062 2.1562-0.85938 0.92188-0.8125 1.0938-1.7188 1.0938-1.75 0-0.10938-0.10938-0.10938-0.125-0.10938-0.0625 0-0.10938 0.03125-0.125 0.10938-0.09375 0.28125-0.32812 1-1.0156 1.5781-0.6875 0.54688-1.3125 0.71875-1.8281 0.71875-0.89062 0-1.9531-0.51562-1.9531-2.0625 0-0.57812 0.20312-2.1875 1.2031-3.3594 0.60938-0.70312 1.5469-1.2031 2.4375-1.2031 1.0156 0 1.6094 0.76562 1.6094 1.9219 0 0.40625-0.03125 0.40625-0.03125 0.51562 0 0.09375 0.10938 0.09375 0.14062 0.09375 0.125 0 0.125-0.015625 0.1875-0.20312z"/>
</g>
<g id="h">
<path d="m2.2656-4.3594c0-0.10938-0.09375-0.26562-0.28125-0.26562s-0.39062 0.1875-0.39062 0.39062c0 0.10938 0.078125 0.26562 0.28125 0.26562 0.1875 0 0.39062-0.20312 0.39062-0.39062zm-1.4219 3.5469c-0.03125 0.09375-0.0625 0.17188-0.0625 0.29688 0 0.32812 0.26562 0.57812 0.65625 0.57812 0.6875 0 1-0.95312 1-1.0625 0-0.09375-0.09375-0.09375-0.10938-0.09375-0.09375 0-0.10938 0.046875-0.14062 0.125-0.15625 0.5625-0.45312 0.84375-0.73438 0.84375-0.14062 0-0.17188-0.09375-0.17188-0.25s0.046875-0.28125 0.10938-0.4375c0.078125-0.1875 0.15625-0.375 0.21875-0.5625 0.0625-0.17188 0.32812-0.79688 0.34375-0.89062 0.03125-0.0625 0.046875-0.14062 0.046875-0.21875 0-0.32812-0.28125-0.59375-0.65625-0.59375-0.70312 0-1.0156 0.95312-1.0156 1.0781 0 0.078125 0.09375 0.078125 0.125 0.078125 0.09375 0 0.09375-0.03125 0.125-0.10938 0.17188-0.59375 0.48438-0.84375 0.73438-0.84375 0.10938 0 0.17188 0.046875 0.17188 0.23438 0 0.17188-0.03125 0.26562-0.20312 0.70312z"/>
</g>
<g id="g">
<path d="m3.7031-1.8594c0-0.76562-0.57812-1.2188-1.2656-1.2188-1.0312 0-2 0.96875-2 1.9219 0 0.70312 0.5 1.2188 1.2656 1.2188 1 0 2-0.90625 2-1.9219zm-2 1.7344c-0.34375 0-0.6875-0.21875-0.6875-0.78125 0-0.28125 0.125-0.96875 0.40625-1.3594 0.29688-0.4375 0.70312-0.60938 1.0156-0.60938 0.375 0 0.6875 0.25 0.6875 0.76562 0 0.17188-0.078125 0.85938-0.39062 1.3438-0.26562 0.42188-0.67188 0.64062-1.0312 0.64062z"/>
</g>
<g id="a">
<path d="m2.3281-4.4375c0-0.1875 0-0.1875-0.20312-0.1875-0.45312 0.4375-1.0781 0.4375-1.3594 0.4375v0.25c0.15625 0 0.625 0 1-0.1875v3.5469c0 0.23438 0 0.32812-0.6875 0.32812h-0.26562v0.25c0.125 0 0.98438-0.03125 1.2344-0.03125 0.21875 0 1.0938 0.03125 1.25 0.03125v-0.25h-0.26562c-0.70312 0-0.70312-0.09375-0.70312-0.32812z"/>
</g>
<g id="f">
<path d="m7.5-2.1875c0.14062 0 0.4375 0 0.4375-0.3125 0-0.29688-0.28125-0.29688-0.4375-0.29688h-6.0938c-0.15625 0-0.45312 0-0.45312 0.29688 0 0.3125 0.29688 0.3125 0.45312 0.3125z"/>
</g>
<g id="e">
<path d="m4.75-2.1875h3.0781c0.14062 0 0.4375 0 0.4375-0.3125 0-0.29688-0.29688-0.29688-0.4375-0.29688h-3.0781v-3.0938c0-0.125 0-0.42188-0.29688-0.42188-0.3125 0-0.3125 0.29688-0.3125 0.42188v3.0938h-3.0781c-0.14062 0-0.42188 0-0.42188 0.29688 0 0.3125 0.29688 0.3125 0.42188 0.3125h3.0781v3.0781c0 0.125 0 0.42188 0.3125 0.42188 0.29688 0 0.29688-0.28125 0.29688-0.42188z"/>
</g>
</defs>
<path d="m25.93 107.12h14.176" fill="none" stroke="#000" stroke-miterlimit="10" stroke-width=".3985"/>
<g>
<use x="13.283" y="109.775" xlink:href="#d"/>
</g>
<g>
<use x="19.094999" y="111.27" xlink:href="#h"/>
</g>
<path d="m27.52 107.12c0-0.875-0.71094-1.5859-1.5898-1.5859-0.875 0-1.5859 0.71094-1.5859 1.5859 0 0.8789 0.71094 1.5859 1.5859 1.5859 0.87891 0 1.5898-0.70703 1.5898-1.5859z" stroke="#000" stroke-miterlimit="10" stroke-width=".3985"/>
<path d="m40.105 107.12h12.473m31.746 0h12.473" fill="none" stroke="#000" stroke-miterlimit="10" stroke-width=".3985"/>
<path d="m52.18 107.12 3.0781-5.9531 5.3555 11.906 5.3594-11.906 5.3555 11.906 5.3594-11.906 5.3594 11.906 2.6758-5.9531" fill="none" stroke="#000" stroke-linejoin="bevel" stroke-miterlimit="10" stroke-width=".797"/>
<g>
<use x="62.433998" y="97.353996" xlink:href="#c"/>
</g>
<g>
<use x="69.999001" y="98.848" xlink:href="#a"/>
</g>
<path d="m96.797 107.12h3.1211m7.9336 0h3.1211" fill="none" stroke="#000" stroke-miterlimit="10" stroke-width=".3985"/>
<path d="m99.918 95.211v23.813m7.9336-23.813v23.813" fill="none" stroke="#000" stroke-miterlimit="10" stroke-width=".797"/>
<g>
<use x="99.967003" y="90.806" xlink:href="#b"/>
</g>
<path d="m191.28 121.29-47.227-27.781v55.559z" fill="none" stroke="#000" stroke-miterlimit="10" stroke-width=".797"/>
<g>
<use x="147.37199" y="109.893" xlink:href="#f"/>
</g>
<g>
<use x="147.37199" y="137.672" xlink:href="#e"/>
</g>
<path d="m133.93 107.4h10.117m-10.117 27.777h10.117m57.348-13.887h-10.121" fill="none" stroke="#000" stroke-linecap="square" stroke-miterlimit="10" stroke-width=".3985"/>
<path d="m133.93 107.4h-22.961v-0.28515" fill="none" stroke="#000" stroke-miterlimit="10" stroke-width=".3985"/>
<path d="m133.93 135.18v14.176" fill="none" stroke="#000" stroke-miterlimit="10" stroke-width=".3985"/>
<path d="m133.93 149.36v11.906" fill="none" stroke="#000" stroke-miterlimit="10" stroke-width=".3985"/>
<path d="m127.98 161.26h11.906m-9.9219 1.9844h7.9375m-6.4492 1.9844h4.9609" fill="none" stroke="#000" stroke-miterlimit="10" stroke-width=".797"/>
<path d="m133.93 107.4-0.14453-35.578-0.14062-35.574h27.215m7.9375 0h32.879l-0.14063 42.52-0.14062 42.523" fill="none" stroke="#000" stroke-miterlimit="10" stroke-width=".3985"/>
<path d="m160.86 24.344v23.812m7.9375-23.812v23.812" fill="none" stroke="#000" stroke-miterlimit="10" stroke-width=".797"/>
<g>
<use x="159.034" y="19.938999" xlink:href="#b"/>
</g>
<g>
<use x="166.15401" y="21.434" xlink:href="#a"/>
</g>
<path d="m133.93 107.4-0.14453-14.316-0.14062-14.316h15.309m31.746 0h20.977l-0.14063 21.262-0.14062 21.262" fill="none" stroke="#000" stroke-miterlimit="10" stroke-width=".3985"/>
<path d="m148.56 78.77 3.0781-5.9531 5.3555 11.906 5.3594-11.906 5.3555 11.906 5.3594-11.906 5.3594 11.906 2.6758-5.9531" fill="none" stroke="#000" stroke-linejoin="bevel" stroke-miterlimit="10" stroke-width=".797"/>
<g>
<use x="161.008" y="69.007004" xlink:href="#c"/>
</g>
<path d="m201.4 121.29h28.348" fill="none" stroke="#000" stroke-miterlimit="10" stroke-width=".3985"/>
<path d="m231.33 121.29c0-0.87891-0.71094-1.5898-1.5859-1.5898-0.8789 0-1.5898 0.71094-1.5898 1.5898 0 0.875 0.71094 1.5859 1.5898 1.5859 0.875 0 1.5859-0.71094 1.5859-1.5859z" fill="#fff" stroke="#000" stroke-miterlimit="10" stroke-width=".3985"/>
<g>
<use x="233.26199" y="123.949" xlink:href="#d"/>
</g>
<g>
<use x="239.073" y="125.443" xlink:href="#g"/>
</g>
</svg>
