<?xml version="1.0" encoding="UTF-8" standalone="no"?>
<!-- Created with Inkscape (http://www.inkscape.org/) -->
<svg
   xmlns:svg="http://www.w3.org/2000/svg"
   xmlns="http://www.w3.org/2000/svg"
   xmlns:xlink="http://www.w3.org/1999/xlink"
   version="1.0"
   width="705"
   height="730"
   id="svg3706">
  <defs
     id="defs3708">
    <marker
       refX="0"
       refY="0"
       orient="auto"
       style="overflow:visible"
       id="Arrow2Send">
      <path
         d="M 8.7185878,4.0337352 L -2.2072895,0.016013256 L 8.7185884,-4.0017078 C 6.97309,-1.6296469 6.9831476,1.6157441 8.7185878,4.0337352 z "
         transform="matrix(-0.3,0,0,-0.3,0.69,0)"
         style="font-size:12px;fill-rule:evenodd;stroke-width:0.625;stroke-linejoin:round"
         id="path3898" />
    </marker>
    <marker
       refX="0"
       refY="0"
       orient="auto"
       style="overflow:visible"
       id="Arrow2Mstart">
      <path
         d="M 8.7185878,4.0337352 L -2.2072895,0.016013256 L 8.7185884,-4.0017078 C 6.97309,-1.6296469 6.9831476,1.6157441 8.7185878,4.0337352 z "
         transform="scale(0.6,0.6)"
         style="font-size:12px;fill-rule:evenodd;stroke-width:0.625;stroke-linejoin:round"
         id="path3907" />
    </marker>
    <marker
       refX="0"
       refY="0"
       orient="auto"
       style="overflow:visible"
       id="Arrow2Mend">
      <path
         d="M 8.7185878,4.0337352 L -2.2072895,0.016013256 L 8.7185884,-4.0017078 C 6.97309,-1.6296469 6.9831476,1.6157441 8.7185878,4.0337352 z "
         transform="scale(-0.6,-0.6)"
         style="font-size:12px;fill-rule:evenodd;stroke-width:0.625;stroke-linejoin:round"
         id="path3904" />
    </marker>
    <linearGradient
       id="linearGradient3726">
      <stop
         style="stop-color:#e0e0e0;stop-opacity:1"
         offset="0"
         id="stop3728" />
      <stop
         style="stop-color:#3c3c3c;stop-opacity:1"
         offset="1"
         id="stop3730" />
    </linearGradient>
    <radialGradient
       cx="295.59448"
       cy="479.57117"
       r="270.11075"
       fx="295.59448"
       fy="479.57117"
       id="radialGradient3732"
       xlink:href="#linearGradient3726"
       gradientUnits="userSpaceOnUse"
       gradientTransform="matrix(1.3119692,0.7482134,-0.6443924,1.1299225,216.81563,-283.4748)" />
    <radialGradient
       cx="295.59448"
       cy="479.57117"
       r="270.11075"
       fx="295.59448"
       fy="479.57117"
       id="radialGradient4048"
       xlink:href="#linearGradient3726"
       gradientUnits="userSpaceOnUse"
       gradientTransform="matrix(1.3119692,0.7482134,-0.6443924,1.1299225,216.81563,-283.4748)" />
  </defs>
  <g
     transform="translate(-112.80398,-105.65209)"
     id="layer1">
    <g
       transform="translate(2.5472188,4.467473)"
       id="g4022">
      <path
         d="M 647.6095 561.7489 A 268.61075 268.61075 0 1 1  110.388,561.7489 A 268.61075 268.61075 0 1 1  647.6095 561.7489 z"
         transform="matrix(0.9909183,0,0,0.9909183,4.6684925,2.6485717)"
         style="fill:url(#radialGradient4048);fill-opacity:1;stroke:#da251d;stroke-width:2.52291226;stroke-linecap:round;stroke-linejoin:bevel;stroke-miterlimit:4;stroke-dasharray:none;stroke-dashoffset:0;stroke-opacity:1"
         id="path3724" />
      <g
         id="g4014">
        <path
           d="M 376.5,113.59375 L 376.5,291.8125 L 382.5,291.8125 L 382.5,113.59375 L 376.5,113.59375 z "
           style="fill:#000000;fill-opacity:1;fill-rule:evenodd;stroke:none;stroke-width:6;stroke-linecap:butt;stroke-linejoin:miter;stroke-miterlimit:4;stroke-dasharray:none;stroke-opacity:1"
           id="path3938" />
        <path
           d="M 364.97975,144.98525 L 379.44355,105.65209 L 393.90735,144.98525 C 385.36793,138.70145 373.68452,138.73766 364.97975,144.98525 z "
           style="font-size:12px;fill-rule:evenodd;stroke-width:0.625;stroke-linejoin:round"
           id="path4020" />
      </g>
      <g
         id="g3998">
        <path
           d="M 647.34375,558.75 L 647.34375,564.75 L 804.75,564.75 L 804.75,558.75 L 647.34375,558.75 z "
           style="fill:#1f1a17;fill-opacity:1;fill-rule:evenodd;stroke:none;stroke-width:6;stroke-linecap:butt;stroke-linejoin:miter;stroke-miterlimit:4;stroke-dasharray:none;stroke-opacity:1"
           id="path3942" />
        <path
           d="M 773.37638,547.22747 L 812.70954,561.69127 L 773.37638,576.15507 C 779.66018,567.61565 779.62397,555.93224 773.37638,547.22747 z "
           style="font-size:12px;fill-rule:evenodd;stroke-width:0.625;stroke-linejoin:round"
           id="path4004" />
      </g>
      <text
         x="632.60522"
         y="360.69379"
         style="font-size:34.6541214px;font-style:normal;font-weight:normal;fill:#da251d;fill-opacity:1;stroke:none;stroke-width:1px;stroke-linecap:butt;stroke-linejoin:miter;stroke-opacity:1;font-family:Arial"
         id="text3944"
         xml:space="preserve"><tspan
           x="632.60522"
           y="360.69379"
           id="tspan3946">Fermi</tspan></text>
      <text
         x="632.60522"
         y="398.03967"
         style="font-size:34.6541214px;font-style:normal;font-weight:normal;fill:#da251d;fill-opacity:1;stroke:none;stroke-width:1px;stroke-linecap:butt;stroke-linejoin:miter;stroke-opacity:1;font-family:Arial"
         id="text3948"
         xml:space="preserve"><tspan
           x="632.60522"
           y="398.03967"
           id="tspan3950">Surface</tspan></text>
      <path
         d="M 586.90625,416.1875 L 590.28125,421.15625 L 595.0625,417.875 L 591.6875,412.9375 L 586.90625,416.1875 z M 557.15625,436.46875 L 560.53125,441.4375 L 570.4375,434.6875 L 567.0625,429.71875 L 557.15625,436.46875 z M 527.40625,456.75 L 530.78125,461.71875 L 540.6875,454.96875 L 537.3125,450 L 527.40625,456.75 z M 497.65625,477.03125 L 501.03125,482 L 510.96875,475.25 L 507.5625,470.28125 L 497.65625,477.03125 z M 467.90625,497.3125 L 471.3125,502.28125 L 481.21875,495.53125 L 477.84375,490.5625 L 467.90625,497.3125 z M 438.1875,517.59375 L 441.5625,522.5625 L 451.46875,515.8125 L 448.09375,510.84375 L 438.1875,517.59375 z M 408.4375,537.875 L 411.8125,542.84375 L 421.71875,536.09375 L 418.34375,531.125 L 408.4375,537.875 z M 378.6875,558.15625 L 382.0625,563.125 L 391.96875,556.375 L 388.59375,551.40625 L 378.6875,558.15625 z "
         style="fill:#da251d;fill-opacity:1;fill-rule:evenodd;stroke:none;stroke-width:6;stroke-linecap:butt;stroke-linejoin:miter;stroke-miterlimit:4;stroke-dasharray:12, 24;stroke-dashoffset:0;stroke-opacity:1"
         id="path3952" />
      <path
         d="M 572.33116,417.77961 L 600.07162,410.81318 L 583.45296,434.09159 C 583.71318,426.86037 579.20084,420.28613 572.33116,417.77961 z "
         style="font-size:12px;fill:#da251d;fill-opacity:1;fill-rule:evenodd;stroke-width:0.625;stroke-linejoin:round"
         id="path3962" />
      <path
         d="M 647.70016,561.74892 L 379.5012,561.74892 L 379.5012,291.79735"
         style="fill:none;fill-rule:evenodd;stroke:#dfdfde;stroke-width:6;stroke-linecap:butt;stroke-linejoin:miter;stroke-miterlimit:4;stroke-dasharray:none;stroke-opacity:1"
         id="path3734" />
      <path
         d="M 379.33734,561.33299 L 557.25292,358.86595"
         style="fill:none;fill-rule:evenodd;stroke:#dfdfde;stroke-width:6;stroke-linecap:butt;stroke-linejoin:miter;stroke-miterlimit:4;stroke-dasharray:none;stroke-opacity:1"
         id="path3736" />
      <path
         d="M 786.32614,598.52251 C 786.2078,598.06105 786.08948,597.74158 785.97116,597.56408 C 785.85283,597.3866 785.71676,597.26828 785.56294,597.2091 C 785.40911,597.14995 785.13696,597.12037 784.7465,597.12036 L 783.52183,597.12036 L 781.67596,605.81726 L 778.60542,605.81726 L 783.16686,585.53041 C 783.32067,584.84415 783.43012,584.30873 783.49521,583.92415 C 783.56028,583.53961 783.59282,583.19943 783.59283,582.90359 C 783.59282,582.40665 783.44196,582.05759 783.14023,581.85641 C 782.8385,581.65529 782.29716,581.54288 781.51622,581.51919 L 781.72921,580.59625 L 786.21965,580.43651 L 787.24907,580.43651 L 783.77031,595.93119 L 784.33828,595.93119 C 785.22571,595.9312 786.22259,595.54369 787.32894,594.76865 C 788.43527,593.99363 789.31975,593.27481 789.98239,592.61217 C 790.64499,591.94957 790.9763,591.31061 790.97632,590.6953 C 790.9763,590.11553 790.574,589.79013 789.7694,589.71912 L 789.96464,588.84943 L 795.71524,588.84943 L 796.05247,589.71912 C 795.07035,590.60658 794.02909,591.47626 792.92868,592.32819 L 788.52699,595.73596 L 790.26637,602.14326 C 790.40834,602.68756 790.53554,603.08099 790.64797,603.32356 C 790.76036,603.56613 790.89052,603.74657 791.03844,603.8649 C 791.18633,603.98322 791.38453,604.04239 791.63302,604.04238 C 791.94065,604.04239 792.30746,603.87673 792.73345,603.54542 C 793.1594,603.21411 793.64453,602.73489 794.18885,602.10777 L 795.20053,603.1017 C 794.13558,604.22579 793.25406,605.00673 792.55596,605.44454 C 791.85783,605.88234 791.18337,606.10124 790.5326,606.10124 C 789.72797,606.10124 789.08902,605.87347 788.61573,605.41791 C 788.14242,604.96236 787.76969,604.20212 787.49756,603.1372 L 786.32614,598.52251 z "
         style="font-size:36.34949112px;font-style:normal;font-weight:normal;fill:#000000;fill-opacity:1;stroke:none;stroke-width:1px;stroke-linecap:butt;stroke-linejoin:miter;stroke-opacity:1;font-family:Arial"
         id="text3966" />
      <path
         d="M 804.03985,609.0993 C 803.90264,608.37671 803.76086,607.68156 803.61452,607.01384 C 803.46817,606.34614 803.31725,605.72417 803.16176,605.14791 C 803.00626,604.57168 802.87821,604.19438 802.7776,604.016 C 802.67698,603.83765 802.5695,603.71417 802.45518,603.64556 C 802.34084,603.57697 802.19678,603.54267 802.02299,603.54266 C 801.83091,603.54267 801.65712,603.58612 801.50163,603.673 C 801.34613,603.75991 801.17692,603.91083 800.99399,604.12577 C 800.81105,604.34072 800.56866,604.67687 800.26682,605.13419 L 799.37501,604.54423 C 799.95126,603.6753 800.50463,603.02588 801.03515,602.59597 C 801.56565,602.16609 802.1922,601.95114 802.9148,601.95113 C 803.19834,601.95114 803.44759,601.98316 803.66254,602.04717 C 803.87749,602.11121 804.06728,602.20954 804.23193,602.34215 C 804.39656,602.47479 804.54291,602.64629 804.67097,602.85666 C 804.79902,603.06704 804.9225,603.35288 805.04141,603.71416 C 805.16031,604.07547 805.27236,604.52366 805.37755,605.05873 C 805.48273,605.59382 805.57649,606.14949 805.65882,606.72572 L 805.79602,606.72572 C 806.67409,605.49092 807.33952,604.58769 807.79229,604.016 C 808.24504,603.44435 808.62692,603.01902 808.93792,602.74004 C 809.2489,602.46107 809.54845,602.26442 809.83659,602.15007 C 810.12469,602.03575 810.50657,601.97858 810.98221,601.97857 C 811.4121,601.97858 811.76424,602.03346 812.03866,602.14321 L 811.48986,604.62655 L 810.52945,604.62655 C 810.47456,604.2424 810.31449,604.05032 810.04925,604.0503 C 809.96691,604.05032 809.88002,604.06404 809.78856,604.09147 C 809.69709,604.11892 809.58504,604.17837 809.45242,604.26983 C 809.31978,604.3613 809.12542,604.53967 808.86932,604.80491 C 808.6132,605.07018 808.32508,605.39488 808.00495,605.77904 C 807.68481,606.16321 807.35553,606.56566 807.01711,606.9864 L 806.08414,608.15261 C 806.24877,609.0307 806.40427,609.78988 806.55062,610.43015 C 806.69696,611.07042 806.8273,611.60322 806.94165,612.02854 C 807.05597,612.45386 807.15658,612.79001 807.24349,613.03697 C 807.33037,613.28393 807.42413,613.46915 807.52475,613.59263 C 807.62535,613.71611 807.72825,613.80301 807.83345,613.85331 C 807.93863,613.90362 808.05982,613.92877 808.19703,613.92877 C 808.44398,613.92877 808.68409,613.83273 808.91734,613.64065 C 809.15057,613.44857 809.48671,613.0141 809.92577,612.33724 L 810.81757,612.92721 C 810.17729,613.87847 809.59876,614.54846 809.08198,614.9372 C 808.56518,615.32593 807.95006,615.5203 807.23663,615.5203 C 806.84331,615.5203 806.50945,615.44942 806.23506,615.30764 C 805.96065,615.16587 805.72284,614.93949 805.52162,614.6285 C 805.32038,614.31751 805.14202,613.83273 804.98653,613.17417 C 804.70298,612.00339 804.52919,611.10701 804.46517,610.48503 L 804.32797,610.48503 C 803.35841,611.84789 802.6381,612.82659 802.16705,613.42113 C 801.69599,614.01567 801.30726,614.45471 801.00085,614.73826 C 800.69443,615.02181 800.39716,615.22075 800.10904,615.33508 C 799.82091,615.44942 799.43904,615.50658 798.96341,615.50658 C 798.53351,615.50658 798.18137,615.4517 797.90696,615.34194 L 798.45577,612.8586 L 799.41617,612.8586 C 799.47105,613.24277 799.63112,613.43485 799.89638,613.43485 C 800.02443,613.43485 800.15934,613.40055 800.30112,613.33195 C 800.44289,613.26335 800.64641,613.09871 800.91166,612.83802 C 801.17692,612.57735 801.54278,612.16803 802.00927,611.61008 C 802.47575,611.05213 803.15261,610.21521 804.03985,609.0993 L 804.03985,609.0993 z "
         style="font-size:28.09875107px;font-style:normal;font-weight:normal;fill:#000000;fill-opacity:1;stroke:none;stroke-width:1px;stroke-linecap:butt;stroke-linejoin:miter;stroke-opacity:1;font-family:Arial"
         id="text3970" />
      <path
         d="M 588.18551,261.10113 C 588.06718,260.63967 587.94885,260.32019 587.83054,260.14269 C 587.7122,259.96521 587.57613,259.84689 587.42232,259.78772 C 587.26849,259.72856 586.99634,259.69898 586.60587,259.69897 L 585.38121,259.69897 L 583.53533,268.39587 L 580.4648,268.39587 L 585.02623,248.10902 C 585.18005,247.42276 585.2895,246.88734 585.35458,246.50276 C 585.41966,246.11823 585.4522,245.77804 585.4522,245.48221 C 585.4522,244.98526 585.30133,244.6362 584.99961,244.43503 C 584.69787,244.2339 584.15654,244.12149 583.3756,244.0978 L 583.58858,243.17486 L 588.07902,243.01513 L 589.10845,243.01513 L 585.62969,258.50981 L 586.19765,258.50981 C 587.08508,258.50982 588.08197,258.1223 589.18832,257.34726 C 590.29465,256.57224 591.17913,255.85342 591.84176,255.19079 C 592.50437,254.52818 592.83568,253.88922 592.83569,253.27392 C 592.83568,252.69414 592.43337,252.36875 591.62878,252.29774 L 591.82401,251.42805 L 597.57462,251.42805 L 597.91184,252.29774 C 596.92973,253.18519 595.88846,254.05488 594.78806,254.90681 L 590.38636,258.31457 L 592.12574,264.72188 C 592.26772,265.26618 592.39492,265.65961 592.50734,265.90217 C 592.61974,266.14474 592.74989,266.32519 592.89781,266.44351 C 593.04571,266.56184 593.2439,266.621 593.4924,266.621 C 593.80003,266.621 594.16684,266.45534 594.59282,266.12403 C 595.01878,265.79272 595.50391,265.31351 596.04822,264.68638 L 597.0599,265.68031 C 595.99496,266.8044 595.11344,267.58535 594.41533,268.02315 C 593.7172,268.46095 593.04275,268.67985 592.39197,268.67985 C 591.58735,268.67985 590.94839,268.45208 590.47511,267.99653 C 590.00179,267.54098 589.62907,266.78074 589.35693,265.71581 L 588.18551,261.10113 z "
         style="font-size:36.34949112px;font-style:normal;font-weight:normal;fill:#000000;fill-opacity:1;stroke:none;stroke-width:1px;stroke-linecap:butt;stroke-linejoin:miter;stroke-opacity:1;font-family:Arial"
         id="text3976" />
      <path
         d="M 606.06386,277.90683 C 605.7986,276.30616 605.4373,274.3762 604.97997,272.11696 C 604.49519,269.70223 604.17506,268.20674 604.01957,267.63048 C 603.82748,266.93534 603.62625,266.49173 603.41588,266.29964 C 603.28783,266.18074 603.12776,266.12129 602.93568,266.12127 C 602.64298,266.12129 602.36858,266.24019 602.11248,266.478 C 601.85636,266.71582 601.5408,267.12743 601.16579,267.71281 L 600.27398,267.12284 C 600.90511,266.18074 601.49507,265.51532 602.04387,265.12657 C 602.59268,264.73784 603.20551,264.54348 603.88237,264.54346 C 604.25738,264.54348 604.57751,264.59378 604.84277,264.69438 C 605.0257,264.76757 605.20864,264.88877 605.39158,265.05797 C 605.57451,265.22719 605.73686,265.46272 605.87864,265.76455 C 606.02041,266.06641 606.14389,266.40483 606.24908,266.77984 C 606.35426,267.15487 606.47088,267.69452 606.59895,268.39881 C 606.81846,269.57875 607.03112,270.82041 607.23693,272.12382 C 607.44272,273.42723 607.6188,274.63688 607.76515,275.75278 C 608.65238,274.47224 609.40469,273.21914 610.02211,271.99347 C 610.6395,270.76782 611.08312,269.70223 611.35296,268.79669 C 611.62277,267.89118 611.75769,267.15487 611.7577,266.58776 C 611.75769,266.15787 611.66622,265.86518 611.4833,265.70967 C 611.30035,265.55419 610.98936,265.46272 610.55033,265.43527 L 610.68753,264.76299 L 614.29592,264.76299 L 614.66636,265.44899 C 613.97119,267.35152 613.02908,269.38667 611.84002,271.55443 C 610.66923,273.67648 609.32923,275.78937 607.82003,277.89311 C 606.37484,279.89625 605.17205,281.346 604.21165,282.24238 C 603.54393,282.85521 602.89909,283.29425 602.27712,283.55951 C 601.78319,283.76074 601.25725,283.86135 600.69931,283.86136 C 600.50722,283.86135 600.28542,283.84534 600.03388,283.81333 C 599.78235,283.78132 599.58798,283.73787 599.45078,283.68299 L 600.04074,281.0213 L 601.12463,281.0213 C 601.12463,281.60668 601.32585,281.89938 601.72831,281.89938 C 602.25882,281.89938 602.87622,281.56781 603.58053,280.90468 C 604.28482,280.24153 605.1126,279.24226 606.06386,277.90683 L 606.06386,277.90683 z "
         style="font-size:28.09875107px;font-style:normal;font-weight:normal;fill:#000000;fill-opacity:1;stroke:none;stroke-width:1px;stroke-linecap:butt;stroke-linejoin:miter;stroke-opacity:1;font-family:Arial"
         id="text3980" />
      <path
         d="M 409.40939,128.66157 C 409.29106,128.20011 409.17273,127.88063 409.05442,127.70313 C 408.93608,127.52565 408.80001,127.40733 408.64619,127.34816 C 408.49236,127.289 408.22021,127.25942 407.82975,127.25941 L 406.60508,127.25941 L 404.75921,135.95631 L 401.68867,135.95631 L 406.25011,115.66946 C 406.40392,114.9832 406.51338,114.44778 406.57846,114.0632 C 406.64353,113.67867 406.67607,113.33848 406.67608,113.04265 C 406.67607,112.5457 406.52521,112.19664 406.22349,111.99547 C 405.92175,111.79434 405.38041,111.68193 404.59947,111.65824 L 404.81246,110.7353 L 409.3029,110.57557 L 410.33233,110.57557 L 406.85357,126.07025 L 407.42153,126.07025 C 408.30896,126.07026 409.30585,125.68274 410.4122,124.9077 C 411.51853,124.13268 412.403,123.41386 413.06564,122.75123 C 413.72825,122.08862 414.05956,121.44966 414.05957,120.83436 C 414.05956,120.25458 413.65725,119.92919 412.85265,119.85818 L 413.04789,118.98849 L 418.79849,118.98849 L 419.13572,119.85818 C 418.1536,120.74563 417.11234,121.61532 416.01193,122.46725 L 411.61024,125.87501 L 413.34962,132.28232 C 413.4916,132.82662 413.61879,133.22005 413.73122,133.46261 C 413.84361,133.70518 413.97377,133.88563 414.12169,134.00395 C 414.26958,134.12228 414.46778,134.18144 414.71627,134.18144 C 415.0239,134.18144 415.39071,134.01578 415.8167,133.68447 C 416.24265,133.35316 416.72779,132.87395 417.2721,132.24682 L 418.28378,133.24075 C 417.21883,134.36484 416.33731,135.14579 415.63921,135.58359 C 414.94108,136.02139 414.26662,136.24029 413.61585,136.24029 C 412.81123,136.24029 412.17227,136.01252 411.69898,135.55697 C 411.22567,135.10142 410.85295,134.34118 410.58081,133.27625 L 409.40939,128.66157 z "
         style="font-size:36.34949112px;font-style:normal;font-weight:normal;fill:#000000;fill-opacity:1;stroke:none;stroke-width:1px;stroke-linecap:butt;stroke-linejoin:miter;stroke-opacity:1;font-family:Arial"
         id="text3984" />
      <path
         d="M 431.95257,141.58449 L 431.11564,145.43983 L 421.1823,145.43983 L 420.92162,144.76755 L 428.42651,136.12389 C 429.48752,134.90739 430.26499,134.04302 430.75892,133.53079 L 430.6766,133.43475 L 427.4661,133.43475 C 426.99046,133.43476 426.64289,133.46678 426.42337,133.53079 C 426.20385,133.59483 425.98432,133.70688 425.76481,133.86694 C 425.54528,134.02702 425.30975,134.26483 425.05822,134.58038 C 424.80668,134.89595 424.52542,135.34643 424.21444,135.93181 L 422.99335,135.93181 L 423.80284,132.32343 L 433.55782,132.32343 L 433.8185,133.00943 L 427.27402,140.52804 C 426.00262,141.98237 424.90044,143.21718 423.96748,144.23247 L 424.0498,144.32851 L 427.15054,144.32851 C 427.69933,144.32851 428.12008,144.29878 428.41279,144.23933 C 428.70547,144.17987 428.96158,144.06783 429.18111,143.90318 C 429.40062,143.73854 429.62701,143.4893 429.86026,143.15544 C 430.09349,142.82159 430.3839,142.29794 430.73148,141.58449 L 431.95257,141.58449 z "
         style="font-size:28.09875107px;font-style:normal;font-weight:normal;fill:#000000;fill-opacity:1;stroke:none;stroke-width:1px;stroke-linecap:butt;stroke-linejoin:miter;stroke-opacity:1;font-family:Arial"
         id="text3988" />
      <g
         id="g4006">
        <path
           d="M 615.59375,288.3125 L 554.96875,356.9375 L 559.46875,360.90625 L 620.09375,292.28125 L 615.59375,288.3125 z "
           style="fill:#1f1a17;fill-opacity:1;fill-rule:evenodd;stroke:none;stroke-width:6;stroke-linecap:butt;stroke-linejoin:miter;stroke-miterlimit:4;stroke-dasharray:none;stroke-opacity:1"
           id="path3738" />
        <path
           d="M 586.19096,304.21152 L 623.07564,284.31631 L 607.86705,323.36753 C 605.62944,313.00409 596.85082,305.29441 586.19096,304.21152 z "
           style="font-size:12px;fill-rule:evenodd;stroke-width:0.625;stroke-linejoin:round"
           id="path4012" />
      </g>
    </g>
  </g>
</svg>
