<?xml version="1.0" encoding="UTF-8" standalone="no"?>
<!-- Created with Inkscape (http://www.inkscape.org/) -->
<svg
   xmlns:dc="http://purl.org/dc/elements/1.1/"
   xmlns:cc="http://web.resource.org/cc/"
   xmlns:rdf="http://www.w3.org/1999/02/22-rdf-syntax-ns#"
   xmlns:svg="http://www.w3.org/2000/svg"
   xmlns="http://www.w3.org/2000/svg"
   xmlns:sodipodi="http://sodipodi.sourceforge.net/DTD/sodipodi-0.dtd"
   xmlns:inkscape="http://www.inkscape.org/namespaces/inkscape"
   width="500"
   height="400"
   id="svg20607"
   sodipodi:version="0.32"
   inkscape:version="0.45.1"
   version="1.0"
   sodipodi:docbase="C:\Documents and Settings\JJB\My Documents\My Pictures\Electronics\Illustrations\Materials"
   sodipodi:docname="Fermi Surface.svg"
   inkscape:output_extension="org.inkscape.output.svg.inkscape">
  <sodipodi:namedview
     id="base"
     pagecolor="#ffffff"
     bordercolor="#666666"
     borderopacity="1.0"
     gridtolerance="10000"
     guidetolerance="10"
     objecttolerance="50"
     inkscape:pageopacity="0.0"
     inkscape:pageshadow="2"
     inkscape:zoom="0.70710678"
     inkscape:cx="184.58941"
     inkscape:cy="269.18946"
     inkscape:document-units="px"
     inkscape:current-layer="layer1"
     width="500px"
     height="400px"
     gridspacingx="5px"
     gridspacingy="5px"
     inkscape:object-nodes="true"
     inkscape:object-points="false"
     showgrid="true"
     inkscape:window-width="1382"
     inkscape:window-height="874"
     inkscape:window-x="50"
     inkscape:window-y="0"
     inkscape:object-paths="true"
     inkscape:grid-points="true"
     showguides="true"
     inkscape:guide-bbox="true" />
  <defs
     id="defs20609" />
  <metadata
     id="metadata20612">
    <rdf:RDF>
      <cc:Work
         rdf:about="">
        <dc:format>image/svg+xml</dc:format>
        <dc:type
           rdf:resource="http://purl.org/dc/dcmitype/StillImage" />
      </cc:Work>
    </rdf:RDF>
  </metadata>
  <g
     inkscape:label="Layer 1"
     id="layer1"
     inkscape:groupmode="layer">
    <path
       style="font-size:13.125px;fill:#a9a9a9;fill-rule:evenodd;stroke:#000000;stroke-width:1px;stroke-linecap:butt;stroke-linejoin:round;stroke-dasharray:none;stroke-opacity:1;font-family:&quot;Courier New&quot;, Courier, Symbol, monospace"
       id="path9683"
       sodipodi:nodetypes="ccccc"
       d="M 53.714031,333.44487 L 242.0778,277.30361 L 453.09157,324.4135 L 273.4458,397.70312 L 53.714031,333.44487 z " />
    <path
       style="fill:#696969;fill-rule:evenodd;stroke:#000000;stroke-width:1px;stroke-linecap:butt;stroke-linejoin:miter;stroke-opacity:1"
       inkscape:original="M 262 81.28125 L 64.625 101.65625 L 74.15625 373.40625 L 262.65625 317.59375 L 262 81.28125 z "
       sodipodi:type="inkscape:offset"
       d="M 262,81.28125 L 64.625,101.65625 L 74.15625,373.40625 L 262.65625,317.59375 L 262,81.28125 z "
       transform="translate(-20.453579,-39.957447)"
       id="path21734"
       inkscape:radius="0" />
    <path
       style="fill:#dcdcdc;fill-rule:evenodd;stroke:#000000;stroke-width:1px;stroke-linecap:butt;stroke-linejoin:miter;stroke-opacity:1"
       d="M 241.71105,41.329354 L 462.07249,58.391827 L 453.10624,323.97872 L 241.57377,277.45384 L 241.71105,41.329354 z "
       id="path19447" />
    <g
       id="g19775"
       transform="translate(255.32107,264.49113)">
      <g
         style="font-style:normal;font-variant:normal;font-weight:normal;font-stretch:normal;letter-spacing:normal;word-spacing:normal;text-anchor:start;fill:none;fill-opacity:1;fill-rule:evenodd;stroke:#000000;stroke-linecap:butt;stroke-linejoin:miter;stroke-miterlimit:10.43299961;stroke-dasharray:none;stroke-dashoffset:0;stroke-opacity:1"
         id="g19777"
         xml:space="preserve"
         transform="matrix(0.7142857,0,0,-0.7142857,-125,375)"><path
           style="fill:#000000;stroke-width:0"
           id="path19779"
           d="M 460.38,408.94 L 460.37,408.87 L 460.35,408.79 L 460.34,408.72 L 460.32,408.64 L 460.29,408.48 L 460.25,408.32 L 460.21,408.16 L 460.18,408 L 460.14,407.84 L 460.1,407.68 L 460.09,407.6 L 460.07,407.53 L 460.05,407.46 L 460.04,407.39 L 460.02,407.32 L 460.01,407.25 L 460,407.19 L 459.98,407.13 L 459.97,407.08 L 459.96,407.02 L 459.95,406.97 L 459.95,406.93 L 459.94,406.89 L 459.94,406.85 L 459.93,406.82 L 459.93,406.8 C 459.93,405.9 460.63,405.45 461.38,405.45 C 461.98,405.45 462.88,405.85 463.22,406.85 C 463.27,406.95 463.87,409.29 464.17,410.53 C 464.52,412.03 464.92,413.52 465.27,415.02 C 465.56,416.11 465.86,417.21 466.11,418.36 C 466.31,419.2 466.71,420.64 466.76,420.84 C 467.51,422.39 470.15,426.92 474.88,426.92 C 477.12,426.92 477.57,425.08 477.57,423.43 C 477.57,420.35 475.13,413.97 474.33,411.83 C 473.88,410.68 473.83,410.09 473.83,409.54 C 473.83,407.2 475.58,405.45 477.92,405.45 C 482.6,405.45 484.44,412.73 484.44,413.13 C 484.44,413.62 484,413.62 483.84,413.62 C 483.35,413.62 483.35,413.47 483.1,412.73 C 482.1,409.34 480.46,406.55 478.02,406.55 C 477.17,406.55 476.82,407.05 476.82,408.19 C 476.82,409.44 477.27,410.63 477.72,411.73 C 478.66,414.37 480.76,419.85 480.76,422.69 C 480.76,426.02 478.61,428.02 475.03,428.02 C 470.55,428.02 468.11,424.83 467.26,423.68 C 467.01,426.47 464.96,428.02 462.68,428.02 C 460.38,428.02 459.44,426.07 458.94,425.18 C 458.14,423.48 457.45,420.55 457.45,420.35 C 457.45,419.85 457.94,419.85 458.04,419.85 C 458.54,419.85 458.59,419.9 458.89,420.99 C 459.73,424.53 460.73,426.92 462.53,426.92 C 463.52,426.92 464.07,426.27 464.07,424.63 C 464.07,423.59 463.92,423.04 463.27,420.45 L 460.38,408.94 z " /><path
           style="fill:#000000;stroke-width:0"
           id="path19781"
           d="M 504.39,412.14 L 504.39,412.17 L 504.4,412.19 L 504.41,412.21 L 504.41,412.23 L 504.42,412.25 L 504.42,412.27 L 504.43,412.31 L 504.44,412.35 L 504.45,412.38 L 504.46,412.41 L 504.47,412.44 L 504.48,412.47 L 504.48,412.5 L 504.49,412.52 L 504.49,412.55 L 504.5,412.57 L 504.5,412.59 L 504.51,412.61 L 504.51,412.63 L 504.51,412.65 L 504.52,412.67 L 504.52,412.69 L 504.52,412.71 L 504.52,412.74 L 504.52,412.77 L 504.53,412.81 L 504.53,412.84 L 504.53,412.86 L 504.53,412.88 L 504.53,412.89 L 504.53,412.91 C 504.53,413.61 503.97,414.03 503.38,414.03 C 502.99,414.03 502.33,413.86 501.95,413.19 C 501.84,412.98 501.56,411.87 501.39,411.17 L 500.66,408.27 C 500.45,407.44 499.37,403.04 499.26,402.66 C 499.23,402.66 497.69,399.63 494.97,399.63 C 492.6,399.63 492.6,401.89 492.6,402.52 C 492.6,404.41 493.4,406.6 494.45,409.29 C 494.87,410.4 495.04,410.82 495.04,411.41 C 495.04,413.09 493.61,414.38 491.73,414.38 C 488.21,414.38 486.64,409.64 486.64,409.04 C 486.64,408.59 487.13,408.59 487.23,408.59 C 487.72,408.59 487.75,408.76 487.86,409.15 C 488.73,412.04 490.23,413.4 491.63,413.4 C 492.22,413.4 492.5,413.02 492.5,412.18 C 492.5,411.38 492.18,410.61 492.01,410.16 C 490.34,405.9 489.98,404.61 489.98,403.08 C 489.98,402.49 489.98,400.85 491.35,399.73 C 492.43,398.82 493.89,398.65 494.83,398.65 C 496.23,398.65 497.48,399.18 498.63,400.22 C 498.18,398.3 497.8,396.84 496.33,395.09 C 495.39,394.02 494,392.86 492.15,392.86 C 491.9,392.86 490.27,392.86 489.53,394.02 C 491.41,394.22 491.41,395.9 491.41,395.93 C 491.41,397.05 490.41,397.26 490.05,397.26 C 489.18,397.26 488.04,396.56 488.04,394.96 C 488.04,393.18 489.71,391.89 492.18,391.89 C 495.7,391.89 499.99,394.61 501.07,398.96 L 504.39,412.14 z " /></g>    </g>
    <g
       id="g20099"
       transform="translate(-186.22145,279.06131)">
      <g
         style="font-style:normal;font-variant:normal;font-weight:normal;font-stretch:normal;letter-spacing:normal;word-spacing:normal;text-anchor:start;fill:none;fill-opacity:1;fill-rule:evenodd;stroke:#000000;stroke-linecap:butt;stroke-linejoin:miter;stroke-miterlimit:10.43299961;stroke-dasharray:none;stroke-dashoffset:0;stroke-opacity:1"
         id="g20101"
         xml:space="preserve"
         transform="matrix(0.7142857,0,0,-0.7142857,-125,375)"><path
           style="fill:#000000;stroke-width:0"
           id="path20103"
           d="M 460.38,408.94 L 460.37,408.87 L 460.35,408.79 L 460.34,408.72 L 460.32,408.64 L 460.29,408.48 L 460.25,408.32 L 460.21,408.16 L 460.18,408 L 460.14,407.84 L 460.1,407.68 L 460.09,407.6 L 460.07,407.53 L 460.05,407.46 L 460.04,407.39 L 460.02,407.32 L 460.01,407.25 L 460,407.19 L 459.98,407.13 L 459.97,407.08 L 459.96,407.02 L 459.95,406.97 L 459.95,406.93 L 459.94,406.89 L 459.94,406.85 L 459.93,406.82 L 459.93,406.8 C 459.93,405.9 460.63,405.45 461.38,405.45 C 461.98,405.45 462.88,405.85 463.22,406.85 C 463.27,406.95 463.87,409.29 464.17,410.53 C 464.52,412.03 464.92,413.52 465.27,415.02 C 465.56,416.11 465.86,417.21 466.11,418.36 C 466.31,419.2 466.71,420.64 466.76,420.84 C 467.51,422.39 470.15,426.92 474.88,426.92 C 477.12,426.92 477.57,425.08 477.57,423.43 C 477.57,420.35 475.13,413.97 474.33,411.83 C 473.88,410.68 473.83,410.09 473.83,409.54 C 473.83,407.2 475.58,405.45 477.92,405.45 C 482.6,405.45 484.44,412.73 484.44,413.13 C 484.44,413.62 484,413.62 483.84,413.62 C 483.35,413.62 483.35,413.47 483.1,412.73 C 482.1,409.34 480.46,406.55 478.02,406.55 C 477.17,406.55 476.82,407.05 476.82,408.19 C 476.82,409.44 477.27,410.63 477.72,411.73 C 478.66,414.37 480.76,419.85 480.76,422.69 C 480.76,426.02 478.61,428.02 475.03,428.02 C 470.55,428.02 468.11,424.83 467.26,423.68 C 467.01,426.47 464.96,428.02 462.68,428.02 C 460.38,428.02 459.44,426.07 458.94,425.18 C 458.14,423.48 457.45,420.55 457.45,420.35 C 457.45,419.85 457.94,419.85 458.04,419.85 C 458.54,419.85 458.59,419.9 458.89,420.99 C 459.73,424.53 460.73,426.92 462.53,426.92 C 463.52,426.92 464.07,426.27 464.07,424.63 C 464.07,423.59 463.92,423.04 463.27,420.45 L 460.38,408.94 z " /><path
           style="fill:#000000;stroke-width:0"
           id="path20105"
           d="M 493.68,402.7 L 493.65,402.58 L 493.61,402.47 L 493.56,402.35 L 493.52,402.22 L 493.46,402.1 L 493.4,401.97 L 493.34,401.85 L 493.27,401.72 L 493.2,401.59 L 493.13,401.46 L 493.05,401.33 L 492.96,401.21 L 492.87,401.08 L 492.78,400.96 L 492.68,400.84 L 492.58,400.72 L 492.47,400.6 L 492.36,400.49 L 492.25,400.39 L 492.13,400.29 L 492.01,400.19 L 491.88,400.1 L 491.75,400.02 L 491.62,399.94 L 491.48,399.87 L 491.34,399.81 L 491.19,399.76 L 491.04,399.71 L 490.89,399.68 L 490.73,399.65 L 490.57,399.63 L 490.41,399.63 C 490.3,399.63 489.25,399.63 488.52,400.12 C 489.95,400.57 490.05,401.82 490.05,402.04 C 490.05,402.8 489.46,403.32 488.66,403.32 C 487.68,403.32 486.67,402.49 486.67,401.2 C 486.67,399.45 488.63,398.65 490.34,398.65 C 491.94,398.65 493.37,399.66 494.24,401.13 C 495.08,399.28 497,398.65 498.39,398.65 C 502.4,398.65 504.53,403.01 504.53,403.98 C 504.53,404.44 504.07,404.44 503.97,404.44 C 503.48,404.44 503.45,404.27 503.3,403.85 C 502.57,401.44 500.48,399.63 498.53,399.63 C 497.13,399.63 496.4,400.57 496.4,401.89 C 496.4,402.8 497.24,405.97 498.21,409.84 C 498.91,412.53 500.48,413.4 501.63,413.4 C 501.7,413.4 502.79,413.4 503.52,412.91 C 502.4,412.6 501.98,411.62 501.98,411 C 501.98,410.23 502.57,409.7 503.38,409.7 C 504.18,409.7 505.33,410.37 505.33,411.83 C 505.33,413.79 503.1,414.38 501.7,414.38 C 499.96,414.38 498.56,413.23 497.8,411.9 C 497.17,413.33 495.57,414.38 493.61,414.38 C 489.71,414.38 487.48,410.09 487.48,409.04 C 487.48,408.59 487.96,408.59 488.07,408.59 C 488.52,408.59 488.56,408.73 488.73,409.18 C 489.6,411.9 491.8,413.4 493.51,413.4 C 494.66,413.4 495.6,412.77 495.6,411.1 C 495.6,410.4 495.18,408.66 494.87,407.47 L 493.68,402.7 z " /></g>    </g>
    <g
       id="g20431"
       transform="translate(46.379661,-65.361812)">
      <g
         style="font-style:normal;font-variant:normal;font-weight:normal;font-stretch:normal;letter-spacing:normal;word-spacing:normal;text-anchor:start;fill:none;fill-opacity:1;fill-rule:evenodd;stroke:#000000;stroke-linecap:butt;stroke-linejoin:miter;stroke-miterlimit:10.43299961;stroke-dasharray:none;stroke-dashoffset:0;stroke-opacity:1"
         id="g20433"
         xml:space="preserve"
         transform="matrix(0.7142857,0,0,-0.7142857,-125,375)"><path
           style="fill:#000000;stroke-width:0"
           id="path20435"
           d="M 460.38,408.94 L 460.37,408.87 L 460.35,408.79 L 460.34,408.72 L 460.32,408.64 L 460.29,408.48 L 460.25,408.32 L 460.21,408.16 L 460.18,408 L 460.14,407.84 L 460.1,407.68 L 460.09,407.6 L 460.07,407.53 L 460.05,407.46 L 460.04,407.39 L 460.02,407.32 L 460.01,407.25 L 460,407.19 L 459.98,407.13 L 459.97,407.08 L 459.96,407.02 L 459.95,406.97 L 459.95,406.93 L 459.94,406.89 L 459.94,406.85 L 459.93,406.82 L 459.93,406.8 C 459.93,405.9 460.63,405.45 461.38,405.45 C 461.98,405.45 462.88,405.85 463.22,406.85 C 463.27,406.95 463.87,409.29 464.17,410.53 C 464.52,412.03 464.92,413.52 465.27,415.02 C 465.56,416.11 465.86,417.21 466.11,418.36 C 466.31,419.2 466.71,420.64 466.76,420.84 C 467.51,422.39 470.15,426.92 474.88,426.92 C 477.12,426.92 477.57,425.08 477.57,423.43 C 477.57,420.35 475.13,413.97 474.33,411.83 C 473.88,410.68 473.83,410.09 473.83,409.54 C 473.83,407.2 475.58,405.45 477.92,405.45 C 482.6,405.45 484.44,412.73 484.44,413.13 C 484.44,413.62 484,413.62 483.84,413.62 C 483.35,413.62 483.35,413.47 483.1,412.73 C 482.1,409.34 480.46,406.55 478.02,406.55 C 477.17,406.55 476.82,407.05 476.82,408.19 C 476.82,409.44 477.27,410.63 477.72,411.73 C 478.66,414.37 480.76,419.85 480.76,422.69 C 480.76,426.02 478.61,428.02 475.03,428.02 C 470.55,428.02 468.11,424.83 467.26,423.68 C 467.01,426.47 464.96,428.02 462.68,428.02 C 460.38,428.02 459.44,426.07 458.94,425.18 C 458.14,423.48 457.45,420.55 457.45,420.35 C 457.45,419.85 457.94,419.85 458.04,419.85 C 458.54,419.85 458.59,419.9 458.89,420.99 C 459.73,424.53 460.73,426.92 462.53,426.92 C 463.52,426.92 464.07,426.27 464.07,424.63 C 464.07,423.59 463.92,423.04 463.27,420.45 L 460.38,408.94 z " /><path
           style="fill:#000000;stroke-width:0"
           id="path20437"
           d="M 490.86,402.07 L 491.03,402.24 L 491.19,402.4 L 491.36,402.57 L 491.53,402.73 L 491.71,402.91 L 491.8,403 L 491.9,403.09 L 492,403.18 L 492.11,403.28 L 492.22,403.38 L 492.34,403.49 L 492.46,403.6 L 492.59,403.71 L 492.72,403.83 L 492.87,403.96 L 493.02,404.09 L 493.18,404.23 L 493.35,404.37 L 493.53,404.52 L 493.72,404.68 L 493.92,404.84 L 494.13,405.01 L 494.35,405.2 L 494.58,405.38 L 494.83,405.58 L 495.08,405.79 L 495.36,406.01 C 496.09,406.6 498.7,408.7 499.71,409.67 C 501.84,411.76 503.17,413.54 503.17,413.96 C 503.17,414.38 502.71,414.38 502.57,414.38 C 502.26,414.38 502.16,414.31 501.98,414.03 C 500.9,412.43 500.17,411.9 499.33,411.9 C 498.91,411.9 498.39,411.94 497.34,412.95 C 496.16,414.13 495.39,414.38 494.59,414.38 C 491.8,414.38 489.92,411.34 489.92,410.3 C 489.92,409.98 490.27,409.88 490.51,409.88 C 490.93,409.88 491,409.98 491.14,410.37 C 491.66,411.59 493.61,411.66 494.17,411.66 C 494.97,411.66 495.88,411.45 496.37,411.34 C 498.29,410.93 498.53,410.93 499.4,410.93 C 498.5,409.98 497.87,409.36 494.55,406.71 C 491.84,404.54 490.89,403.67 490.23,402.98 C 488.14,400.92 487.13,399.38 487.13,399.07 C 487.13,398.65 487.58,398.65 487.72,398.65 C 488.07,398.65 488.14,398.72 488.31,399 C 489.25,400.32 490.34,401.13 491.52,401.13 C 491.94,401.13 492.46,401.09 493.4,400.22 C 494.48,399.18 495.18,398.65 496.3,398.65 C 500.03,398.65 502.36,402.87 502.36,404.05 C 502.36,404.47 501.98,404.51 501.77,404.51 C 501.36,404.51 501.29,404.34 501.14,403.95 C 500.48,402.21 498.43,401.37 496.71,401.37 C 495.91,401.37 495.04,401.55 494.17,401.75 C 492.57,402.1 492.29,402.1 491.66,402.1 C 491.59,402.1 491.07,402.1 490.86,402.07 z " /></g>    </g>
    <path
       style="fill:#4682b4;fill-opacity:0.39215686;fill-rule:nonzero;stroke:#000000;stroke-width:2;stroke-linecap:butt;stroke-miterlimit:10;stroke-dashoffset:0;stroke-opacity:1"
       id="path7719"
       sodipodi:nodetypes="cscscsc"
       d="M 240.56793,84.77045 C 241.78842,85.23734 242.80943,85.63777 244.02857,86.12744 C 336.30521,123.19056 406.41631,229.90988 400.58456,312.53659 C 350.4735,351.87383 241.64276,364.24719 157.71683,340.67352 C 135.49327,334.43121 118.99463,327.75586 104.03291,317.8775 C 99.189244,233.64432 159.24276,123.97257 237.46403,86.06304 C 238.49747,85.56219 239.48532,85.18814 240.56793,84.77045 z " />
    <path
       style="opacity:1;fill:#000000;fill-opacity:1;fill-rule:nonzero;stroke:#000000;stroke-width:2;stroke-linecap:butt;stroke-miterlimit:10;stroke-dasharray:none;stroke-dashoffset:0;stroke-opacity:1"
       id="path8716"
       sodipodi:cx="277.5"
       sodipodi:cy="227.5"
       sodipodi:type="arc"
       d="M 280 227.5 A 2.5 2.5 0 1 1  275,227.5 A 2.5 2.5 0 1 1  280 227.5 z"
       transform="translate(68.236544,28.5)"
       sodipodi:rx="2.5"
       sodipodi:ry="2.5" />
    <path
       style="fill:none;fill-rule:evenodd;stroke:#000000;stroke-width:1px;stroke-linecap:butt;stroke-linejoin:miter;stroke-opacity:1"
       d="M 241.82753,277.53033 L 340.23654,257"
       sodipodi:nodetypes="cc"
       id="path8718" />
    <path
       style="fill:#000000;fill-rule:evenodd;stroke:#000000;stroke-width:1px;stroke-linecap:butt;stroke-linejoin:miter;stroke-opacity:1"
       d="M 331.23654,256.5 L 341.35656,256.73292 L 332.24979,261.15285 L 331.23654,256.5"
       id="path8720" />
    <path
       style="fill:none;fill-rule:evenodd;stroke:#000000;stroke-width:2;stroke-linecap:butt;stroke-linejoin:miter;stroke-opacity:1"
       d="M 241.59175,277.64067 L 241.65631,16.173269"
       sodipodi:nodetypes="cc"
       id="path8722" />
    <path
       style="fill:none;fill-rule:evenodd;stroke:#000000;stroke-width:2;stroke-linecap:butt;stroke-linejoin:miter;stroke-opacity:1"
       d="M 242.25874,277.57286 L 24.202671,342.1988"
       sodipodi:nodetypes="cc"
       id="path8730" />
    <path
       style="fill:none;fill-rule:evenodd;stroke:#000000;stroke-width:2;stroke-linecap:butt;stroke-linejoin:miter;stroke-opacity:1"
       d="M 473.10955,328.87154 L 241.93552,277.48447"
       sodipodi:nodetypes="cc"
       id="path8724" />
    <path
       inkscape:transform-center-y="-9.1522014"
       style="fill:#000000;fill-rule:evenodd;stroke:#000000;stroke-width:1px;stroke-linecap:butt;stroke-linejoin:miter;stroke-opacity:1"
       d="M 30.187359,342.83429 L 20.083676,343.45448 L 28.785847,338.2833 L 30.187359,342.83429"
       inkscape:transform-center-x="4.7457295"
       id="path8732" />
    <path
       style="fill:#000000;fill-rule:evenodd;stroke:#000000;stroke-width:1px;stroke-linecap:butt;stroke-linejoin:miter;stroke-opacity:1"
       d="M 467.92888,325.42776 L 477.183,329.53022 L 467.07708,330.11286 L 467.92888,325.42776"
       id="path8734" />
    <path
       style="fill:#000000;fill-rule:evenodd;stroke:#000000;stroke-width:1px;stroke-linecap:butt;stroke-linejoin:miter;stroke-opacity:1"
       d="M 239.25896,20.963067 L 241.60726,11.116517 L 244.02083,20.947271 L 239.25896,20.963067"
       id="path8736" />
    <g
       id="g8768"
       transform="matrix(1.1022542,0,0,1.1022542,122.33551,154.9155)">
      <g
         id="g8770"
         transform="matrix(0.6428571,0,0,-0.6428571,-112.5,375)"
         style="font-style:normal;font-variant:normal;font-weight:normal;font-stretch:normal;letter-spacing:normal;word-spacing:normal;text-anchor:start;fill:none;fill-opacity:1;fill-rule:evenodd;stroke:#000000;stroke-width:0.90723175;stroke-linecap:butt;stroke-linejoin:miter;stroke-miterlimit:10.43299961;stroke-dasharray:none;stroke-dashoffset:0;stroke-opacity:1"
         xml:space="preserve"><path
           id="path8772"
           d="M 460.38,408.94 L 460.37,408.87 L 460.35,408.79 L 460.34,408.72 L 460.32,408.64 L 460.29,408.48 L 460.25,408.32 L 460.21,408.16 L 460.18,408 L 460.14,407.84 L 460.1,407.68 L 460.09,407.6 L 460.07,407.53 L 460.05,407.46 L 460.04,407.39 L 460.02,407.32 L 460.01,407.25 L 460,407.19 L 459.98,407.13 L 459.97,407.08 L 459.96,407.02 L 459.95,406.97 L 459.95,406.93 L 459.94,406.89 L 459.94,406.85 L 459.93,406.82 L 459.93,406.8 C 459.93,405.9 460.63,405.45 461.38,405.45 C 461.98,405.45 462.88,405.85 463.22,406.85 C 463.27,406.95 463.87,409.29 464.17,410.53 C 464.52,412.03 464.92,413.52 465.27,415.02 C 465.56,416.11 465.86,417.21 466.11,418.36 C 466.31,419.2 466.71,420.64 466.76,420.84 C 467.51,422.39 470.15,426.92 474.88,426.92 C 477.12,426.92 477.57,425.08 477.57,423.43 C 477.57,420.35 475.13,413.97 474.33,411.83 C 473.88,410.68 473.83,410.09 473.83,409.54 C 473.83,407.2 475.58,405.45 477.92,405.45 C 482.6,405.45 484.44,412.73 484.44,413.13 C 484.44,413.62 484,413.62 483.84,413.62 C 483.35,413.62 483.35,413.47 483.1,412.73 C 482.1,409.34 480.46,406.55 478.02,406.55 C 477.17,406.55 476.82,407.05 476.82,408.19 C 476.82,409.44 477.27,410.63 477.72,411.73 C 478.66,414.37 480.76,419.85 480.76,422.69 C 480.76,426.02 478.61,428.02 475.03,428.02 C 470.55,428.02 468.11,424.83 467.26,423.68 C 467.01,426.47 464.96,428.02 462.68,428.02 C 460.38,428.02 459.44,426.07 458.94,425.18 C 458.14,423.48 457.45,420.55 457.45,420.35 C 457.45,419.85 457.94,419.85 458.04,419.85 C 458.54,419.85 458.59,419.9 458.89,420.99 C 459.73,424.53 460.73,426.92 462.53,426.92 C 463.52,426.92 464.07,426.27 464.07,424.63 C 464.07,423.59 463.92,423.04 463.27,420.45 L 460.38,408.94 z "
           style="fill:#000000;stroke-width:0" /><path
           id="path8774"
           d="M 497.07314,412.77 L 500.49314,412.77 C 501.18314,412.77 501.64314,412.77 501.64314,413.54 C 501.64314,414.03 501.18314,414.03 500.56314,414.03 L 497.32314,414.03 C 498.12314,418.46 498.40314,420.06 498.68314,421.07 C 498.85314,421.84 499.62314,422.57 500.45314,422.57 C 500.49314,422.57 501.43314,422.57 502.09314,422.15 C 500.67314,421.7 500.56314,420.45 500.56314,420.23 C 500.56314,419.47 501.15314,418.95 501.95314,418.95 C 502.90314,418.95 503.94314,419.75 503.94314,421.07 C 503.94314,422.68 502.23314,423.55 500.45314,423.55 C 498.92314,423.55 497.21314,422.68 496.27314,420.93 C 495.57314,419.64 495.29314,418.07 494.56314,414.03 L 491.81314,414.03 C 491.11314,414.03 490.66314,414.03 490.66314,413.26 C 490.66314,412.77 491.11314,412.77 491.74314,412.77 L 494.32314,412.77 C 494.28314,412.56 492.09314,400.01 491.25314,396.28 C 491.08314,395.51 490.48314,392.86 488.81314,392.86 C 488.77314,392.86 487.93314,392.86 487.27314,393.28 C 488.70314,393.73 488.81314,394.99 488.81314,395.2 C 488.81314,395.96 488.22314,396.49 487.41314,396.49 C 486.47314,396.49 485.43314,395.69 485.43314,394.36 C 485.43314,392.79 487.06314,391.89 488.81314,391.89 C 491.04314,391.89 492.58314,394.19 492.99314,394.96 C 494.25314,397.29 495.05314,401.58 495.12314,402 L 497.07314,412.77 z "
           style="fill:#000000;stroke-width:0" /></g>    </g>
    <path
       style="opacity:1;fill:#000000;fill-opacity:1;fill-rule:nonzero;stroke:#000000;stroke-width:2;stroke-linecap:butt;stroke-miterlimit:10;stroke-dasharray:none;stroke-dashoffset:0;stroke-opacity:1"
       id="path8808"
       sodipodi:cx="277.5"
       sodipodi:cy="227.5"
       sodipodi:type="arc"
       d="M 280 227.5 A 2.5 2.5 0 1 1  275,227.5 A 2.5 2.5 0 1 1  280 227.5 z"
       transform="translate(-35.66948,49.770993)"
       sodipodi:rx="2.5"
       sodipodi:ry="2.5" />
  </g>
</svg>
