<?xml version="1.0" encoding="utf-8"?>
<!-- Generator: Adobe Illustrator 12.0.1, SVG Export Plug-In  -->
<!DOCTYPE svg PUBLIC "-//W3C//DTD SVG 1.1//EN" "http://www.w3.org/Graphics/SVG/1.1/DTD/svg11.dtd" [
	<!ENTITY ns_flows "http://ns.adobe.com/Flows/1.0/">
	<!ENTITY ns_svg "http://www.w3.org/2000/svg">
	<!ENTITY ns_xlink "http://www.w3.org/1999/xlink">
]>
<svg  version="1.1" xmlns="&ns_svg;" xmlns:xlink="&ns_xlink;" xmlns:a="http://ns.adobe.com/AdobeSVGViewerExtensions/3.0/"
	 width="200" height="200" viewBox="-12 -6.608 200 200" enable-background="new -12 -6.608 200 200" xml:space="preserve">
<defs>
</defs>
<g>
	<g>
		<path fill="none" d="M153.034,61.356C156.871,70.089,159,79.742,159,89.892"/>
		<g>
			<path fill="none" stroke="#000000" d="M158.982,89.538c-0.001-0.042-4.313-1.167-0.149-2.86c4.158-1.817-0.152-2.902-0.149-2.861
				c-0.026-0.04-4.214-0.836-0.298-2.844c3.961-2.139-0.453-2.871-0.447-2.829c-0.008-0.042-4.372-0.475-0.447-2.829
				c3.787-2.453-0.734-2.811-0.714-2.771c-0.012-0.042-4.426-0.112-0.738-2.768c3.701-2.794-0.849-2.776-0.845-2.733
				c-0.015-0.04-4.445,0.258-1.017-2.677c3.382-3.053-1.034-2.717-1.018-2.678"/>
		</g>
	</g>
</g>
<g>
	<g>
		<path fill="none" d="M106.24,21.256c8.8,2.333,16.93,6.313,24.038,11.59"/>
		<g>
			<path fill="none" stroke="#000000" d="M130.009,32.666c-0.032-0.022-3.42,2.817-2.174-1.461c1.151-4.344-2.206-1.482-2.174-1.461
				c-0.032-0.021-3.139,2.957-2.248-1.338c0.814-4.392-2.335-1.27-2.301-1.251c-0.036-0.014-2.935,3.226-2.304-1.243
				c0.475-4.412-2.444-1.043-2.409-1.027c-0.035-0.015-2.701,3.465-2.409-1.027c0.201-4.581-2.489-0.921-2.449-0.917
				c-0.037-0.013-2.444,3.68-2.496-0.792c-0.162-4.506-2.534-0.803-2.497-0.792"/>
		</g>
	</g>
</g>
<g>
	<g>
		<path fill="none" d="M45.721,32.847c7.11-5.278,15.241-9.258,24.042-11.591"/>
		<g>
			<path fill="none" stroke="#000000" d="M69.454,21.354c-0.038,0.011,0.073,4.432-2.497,0.792c-2.68-3.605-2.534,0.805-2.497,0.792
				c-0.033,0.023,0.354,4.282-2.45,0.917c-2.929-3.368-2.445,1.042-2.41,1.027c-0.035,0.016,0.703,4.315-2.409,1.027
				c-3.164-3.131-2.337,1.264-2.305,1.243c-0.034,0.019,1.031,4.273-2.301,1.251c-3.456-3.003-2.282,1.357-2.248,1.338
				c-0.033,0.021,1.356,4.206-2.174,1.461c-3.625-2.68-2.206,1.484-2.174,1.462"/>
		</g>
	</g>
</g>
<g>
	<g>
		<path fill="none" d="M17,89.892c0-10.151,2.13-19.804,5.968-28.537"/>
		<g>
			<path fill="none" stroke="#000000" d="M22.842,61.686c-0.016,0.039,3.479,2.801-1.018,2.678
				c-4.541-0.005-1.032,2.718-1.017,2.678c-0.022,0.038,3.564,2.466-0.845,2.733c-4.495,0.373-0.749,2.809-0.738,2.767
				c0,0.044,3.788,2.178-0.714,2.772c-4.415,0.742-0.455,2.871-0.447,2.829c-0.006,0.042,4.003,1.873-0.447,2.83
				c-4.527,1.076-0.28,2.889-0.298,2.845c-0.003,0.042,4.172,1.547-0.149,2.86c-4.327,1.437-0.15,2.903-0.149,2.861"/>
		</g>
	</g>
</g>
<circle fill="none" stroke="#000000" cx="32.492" cy="45.618" r="18.392"/>
<circle fill="none" stroke="#000000" cx="88" cy="18.892" r="18.392"/>
<circle fill="none" stroke="#000000" cx="143.509" cy="45.619" r="18.392"/>
<line fill="none" stroke="#000000" stroke-width="2" x1="88" y1="89.779" x2="176" y2="89.779"/>
<g>
	<g>
		<line fill="none" stroke="#000000" stroke-width="2" x1="0" y1="89.779" x2="88" y2="89.779"/>
		<path d="M92.724,87.729c-3.307-0.999-5.456-1.919-8.108-2.983v10.089c0.949-0.451,4.802-1.985,8.108-2.983
			c3.539-1.069,6.748-1.801,8.829-2.062C99.472,89.529,96.263,88.797,92.724,87.729z"/>
	</g>
</g>
<g>
	<g>
		<path fill="none" d="M153.15,152.862c3.835,8.73,5.964,18.382,5.964,28.529"/>
		<g>
			<path fill="none" stroke="#000000" d="M159.095,181.038c-0.001-0.042-4.313-1.167-0.149-2.86c4.158-1.816-0.152-2.901-0.149-2.86
				c-0.026-0.039-4.214-0.836-0.298-2.843c3.962-2.139-0.453-2.87-0.446-2.828c-0.008-0.042-4.373-0.475-0.447-2.828
				c3.787-2.453-0.734-2.811-0.714-2.771c-0.012-0.041-4.425-0.111-0.737-2.767c3.701-2.793-0.849-2.775-0.845-2.732
				c-0.015-0.04-4.445,0.258-1.017-2.677c3.383-3.053-1.033-2.717-1.017-2.678"/>
		</g>
	</g>
</g>
<g>
	<g>
		<path fill="none" d="M45.825,124.354c11.813-8.772,26.444-13.962,42.289-13.962s30.476,5.189,42.289,13.962"/>
		<g>
			<path fill="none" stroke="#000000" d="M129.945,124.041c-0.054-0.038-4.04,2.382-3.692-2.526c0.12-4.918-3.925-2.283-3.858-2.264
				c-0.048-0.051-3.65,2.766-3.984-2.029c-0.46-4.99-4.156-1.817-4.097-1.787c-0.07,0-3.284,3.233-4.196-1.543
				c-1.13-4.755-4.357-1.272-4.294-1.255c-0.051-0.067-2.865,3.706-4.372-0.944c-1.688-4.767-4.492-0.635-4.417-0.687
				c-0.069,0.045-2.361,3.87-4.449-0.432c-2.279-4.344-4.537-0.185-4.471-0.183c-0.065,0.002-1.857,4.326-4.471,0.183
				c-2.809-4.163-4.512,0.489-4.451,0.432c-0.055,0.071-1.336,4.3-4.417,0.687c-3.288-3.655-4.449,0.906-4.371,0.944
				c-0.064,0.019-0.723,4.637-4.293,1.255c-3.731-3.237-4.251,1.589-4.197,1.543c-0.063,0.021-0.186,4.559-4.098,1.788
				c-4.144-2.799-4.053,2.039-3.983,2.028c-0.048,0.048,0.426,4.609-3.857,2.264c-4.388-2.145-3.748,2.563-3.693,2.526"/>
		</g>
	</g>
</g>
<g>
	<g>
		<path fill="none" d="M17.113,181.392c0-10.146,2.128-19.796,5.963-28.526"/>
		<g>
			<path fill="none" stroke="#000000" d="M22.95,153.196c-0.016,0.04,3.479,2.8-1.016,2.677c-4.541-0.005-1.031,2.718-1.017,2.678
				c-0.022,0.037,3.564,2.465-0.845,2.731c-4.494,0.372-0.748,2.808-0.737,2.767c0,0.043,3.788,2.177-0.714,2.771
				c-4.415,0.742-0.454,2.869-0.447,2.828c-0.006,0.041,4.003,1.872-0.447,2.828c-4.526,1.075-0.279,2.888-0.297,2.843
				c-0.003,0.042,4.172,1.547-0.149,2.859c-4.327,1.437-0.15,2.901-0.149,2.86"/>
		</g>
	</g>
</g>
<circle fill="none" stroke="#000000" cx="32.597" cy="137.127" r="18.392"/>
<circle fill="none" stroke="#000000" cx="143.627" cy="137.123" r="18.392"/>
<g>
	<g>
		<line fill="none" x1="156.632" y1="124.118" x2="130.623" y2="150.128"/>
		<g>
			<path fill="none" stroke="#000000" d="M130.937,149.813c0,0-1.854-4.152,2.538-2.538c4.392,1.614,2.539-2.539,2.539-2.539
				s-1.854-4.152,2.537-2.537c4.393,1.614,2.538-2.538,2.538-2.538s-1.854-4.152,2.538-2.538s2.537-2.537,2.537-2.537
				s-1.854-4.153,2.539-2.539c4.392,1.614,2.538-2.538,2.538-2.538s-1.854-4.151,2.538-2.538c4.392,1.614,2.538-2.538,2.538-2.538"
				/>
		</g>
	</g>
</g>
<line fill="none" stroke="#000000" stroke-width="2" x1="88.113" y1="181.392" x2="176" y2="181.392"/>
<g>
	<g>
		<line fill="none" stroke="#000000" stroke-width="2" x1="0" y1="181.392" x2="88.113" y2="181.392"/>
		<path d="M92.836,179.342c-3.307-0.999-5.456-1.919-8.108-2.983v10.089c0.949-0.451,4.802-1.985,8.108-2.983
			c3.539-1.069,6.748-1.801,8.829-2.062C99.584,181.142,96.375,180.41,92.836,179.342z"/>
	</g>
</g>
</svg>
