<svg width="193mm" height="104mm" version="1.1" viewBox="0 0 193 104" xmlns="http://www.w3.org/2000/svg"><rect width="193" height="104" fill="#fff"/><circle cx="91" cy="54" r="2"/><circle cx="160" cy="62" r="2"/>
 <g fill="none" stroke="#000"><path d="m111 42v40l39-20z" stroke-width="1.5"/><path d="m118 66v8m-4-20h8m-8 16h8m-31 29v-29h20m23-54h26v46m-10 0h30m-89-8h-84m122-38h-38v38h20"/><path d="m81 99h20m33-95v24m-5-24v24" stroke-width="2"/>
 <g fill="#fff"><rect x="30" y="48" width="33" height="12"/><circle cx="180" cy="62" r="3"/><circle cx="7" cy="54" r="3"/></g></g>
 <g font-family="Times" font-size="14px" font-style="italic"><text x="2" y="46">V<tspan dy="3" font-size="11px" font-style="normal">in</tspan></text><text x="167" y="53">V<tspan dy="3" font-size="11px" font-style="normal">out</tspan></text><text x="42" y="45">R</text><text x="112" y="13">C</text></g></svg>