<?xml version="1.0" encoding="utf-8"?>
<!-- Generator: Adobe Illustrator 13.0.0, SVG Export Plug-In . SVG Version: 6.00 Build 14948)  -->
<!DOCTYPE svg PUBLIC "-//W3C//DTD SVG 1.1//EN" "http://www.w3.org/Graphics/SVG/1.1/DTD/svg11.dtd">
<svg version="1.1" id="Layer_1" xmlns="http://www.w3.org/2000/svg" xmlns:xlink="http://www.w3.org/1999/xlink" x="0px" y="0px"
	 width="532.741px" height="21.5px" viewBox="0 0 532.741 21.5" enable-background="new 0 0 532.741 21.5" xml:space="preserve">
<line fill="none" stroke="#000000" stroke-width="3.5" x1="0" y1="10.75" x2="77.833" y2="10.75"/>
<line fill="none" stroke="#000000" x1="100.25" y1="10.75" x2="176.606" y2="10.75"/>
<g>
	<g>
		<line fill="none" stroke="#000000" x1="100.25" y1="10.75" x2="136.417" y2="10.75"/>
		<path d="M139.96,9.212c-2.48-0.749-4.092-1.439-6.082-2.237v7.566c0.712-0.338,3.601-1.488,6.082-2.237
			c2.654-0.802,5.061-1.351,6.622-1.546C145.021,10.563,142.614,10.014,139.96,9.212z"/>
	</g>
</g>
<g>
	<g>
		<line fill="none" stroke="#000000" x1="205.583" y1="10.75" x2="216" y2="10.75"/>
		<path d="M219.543,9.212c-2.48-0.749-4.092-1.439-6.082-2.237v7.566c0.712-0.338,3.601-1.488,6.082-2.237
			c2.654-0.802,5.061-1.351,6.622-1.546C224.604,10.563,222.197,10.014,219.543,9.212z"/>
	</g>
</g>
<g>
	<g>
		<line fill="none" stroke="#000000" x1="275.084" y1="10.75" x2="285.5" y2="10.75"/>
		<path d="M289.043,9.212c-2.48-0.749-4.092-1.439-6.082-2.237v7.566c0.713-0.338,3.602-1.488,6.082-2.237
			c2.654-0.802,5.061-1.351,6.621-1.546C294.104,10.563,291.697,10.014,289.043,9.212z"/>
	</g>
</g>
<g>
	<g>
		<line fill="none" stroke="#000000" x1="352.583" y1="10.75" x2="363" y2="10.75"/>
		<path d="M366.543,9.212c-2.48-0.749-4.092-1.439-6.082-2.237v7.566c0.713-0.338,3.602-1.488,6.082-2.237
			c2.654-0.802,5.061-1.351,6.621-1.546C371.604,10.563,369.197,10.014,366.543,9.212z"/>
	</g>
</g>
<g>
	<g>
		<line fill="none" stroke="#000000" x1="410.084" y1="10.75" x2="420.5" y2="10.75"/>
		<path d="M424.043,9.212c-2.48-0.749-4.092-1.439-6.082-2.237v7.566c0.713-0.338,3.602-1.488,6.082-2.237
			c2.654-0.802,5.061-1.351,6.621-1.546C429.104,10.563,426.697,10.014,424.043,9.212z"/>
	</g>
</g>
<g>
	<g>
		<line fill="none" stroke="#000000" x1="467.584" y1="10.75" x2="478" y2="10.75"/>
		<path d="M481.543,9.212c-2.48-0.749-4.092-1.439-6.082-2.237v7.566c0.713-0.338,3.602-1.488,6.082-2.237
			c2.654-0.802,5.061-1.351,6.621-1.546C486.604,10.563,484.197,10.014,481.543,9.212z"/>
	</g>
</g>
<g>
	<g>
		<line fill="none" stroke="#000000" x1="0" y1="10.75" x2="36.5" y2="10.75"/>
		<path d="M40.043,9.212c-2.48-0.749-4.092-1.439-6.082-2.237v7.566c0.712-0.338,3.601-1.488,6.082-2.237
			c2.654-0.802,5.061-1.351,6.622-1.546C45.104,10.563,42.697,10.014,40.043,9.212z"/>
	</g>
</g>
<g>
	<path d="M84.97,9.965v-1.08h9.291v1.08H84.97z M84.97,13.495v-1.081h9.291v1.081H84.97z"/>
</g>
<g>
	<path d="M188.442,5.454v4.231h4.069v1.081h-4.069v4.267h-1.152v-4.267h-4.069V9.685h4.069V5.454H188.442z"/>
</g>
<g>
	<path d="M328.109,5.454v4.231h4.068v1.081h-4.068v4.268h-1.152v-4.268h-4.07V9.686h4.07V5.454H328.109z"/>
</g>
<g>
	<path d="M513.609,5.454v4.231h4.068v1.081h-4.068v4.268h-1.152v-4.268h-4.07V9.686h4.07V5.454H513.609z"/>
	<path d="M524.191,15.231c-0.612,0-1.044-0.486-1.044-1.135c0-0.666,0.45-1.134,1.08-1.134s1.063,0.468,1.063,1.134
		c0,0.648-0.414,1.135-1.081,1.135H524.191z"/>
	<path d="M527.917,15.231c-0.612,0-1.044-0.486-1.044-1.135c0-0.666,0.449-1.134,1.08-1.134s1.063,0.468,1.063,1.134
		c0,0.648-0.414,1.135-1.08,1.135H527.917z"/>
	<path d="M531.643,15.231c-0.612,0-1.044-0.486-1.044-1.135c0-0.666,0.45-1.134,1.08-1.134s1.063,0.468,1.063,1.134
		c0,0.648-0.414,1.135-1.081,1.135H531.643z"/>
</g>
<g>
	<path d="M250.961,13.836h5.379v1.022h-6.976V14.13l3.278-3.964l-3.096-3.922V5.418h6.345v1.008h-4.776v0.056L254,10.125l-3.04,3.67
		V13.836z"/>
</g>
<circle fill="none" stroke="#000000" cx="253" cy="10.75" r="10.25"/>
<g>
	<path d="M393.694,13.836h5.379v1.022h-6.976V14.13l3.277-3.964l-3.096-3.922V5.418h6.346v1.008h-4.776v0.056l2.886,3.642
		l-3.04,3.67V13.836z"/>
</g>
<circle fill="none" stroke="#000000" cx="395.733" cy="10.75" r="10.25"/>
<g>
	<path d="M446.311,13.836h5.379v1.022h-6.976V14.13l3.278-3.964l-3.096-3.922V5.418h6.345v1.008h-4.776v0.056l2.885,3.642
		l-3.039,3.67V13.836z"/>
</g>
<circle fill="none" stroke="#000000" cx="448.35" cy="10.75" r="10.25"/>
<line fill="none" stroke="#000000" x1="263.25" y1="10.75" x2="312.333" y2="10.75"/>
<line fill="none" stroke="#000000" x1="200" y1="10.75" x2="242.75" y2="10.75"/>
<line fill="none" stroke="#000000" x1="458.6" y1="10.75" x2="500.25" y2="10.75"/>
<line fill="none" stroke="#000000" x1="405.983" y1="10.75" x2="438.1" y2="10.75"/>
<line fill="none" stroke="#000000" x1="343.5" y1="10.75" x2="385.483" y2="10.75"/>
</svg>
