<?xml version="1.0" encoding="UTF-8" standalone="no"?>
<svg
   xmlns:dc="http://purl.org/dc/elements/1.1/"
   xmlns:cc="http://creativecommons.org/ns#"
   xmlns:rdf="http://www.w3.org/1999/02/22-rdf-syntax-ns#"
   xmlns:svg="http://www.w3.org/2000/svg"
   xmlns="http://www.w3.org/2000/svg"
   xmlns:sodipodi="http://sodipodi.sourceforge.net/DTD/sodipodi-0.dtd"
   xmlns:inkscape="http://www.inkscape.org/namespaces/inkscape"
   version="1.1"
   id="svg2"
   viewBox="0 0 273.39329 213.30151"
   height="60.198425mm"
   width="77.157661mm"
   inkscape:version="0.91 r13725"
   sodipodi:docname="Many-body self-energy Feynman diagram.svg">
  <sodipodi:namedview
     pagecolor="#ffffff"
     bordercolor="#666666"
     borderopacity="1"
     objecttolerance="10"
     gridtolerance="10"
     guidetolerance="10"
     inkscape:pageopacity="0"
     inkscape:pageshadow="2"
     inkscape:window-width="1280"
     inkscape:window-height="745"
     id="namedview8127"
     showgrid="true"
     inkscape:zoom="0.34872824"
     inkscape:cx="138.2847"
     inkscape:cy="112.79271"
     inkscape:window-x="324"
     inkscape:window-y="1080"
     inkscape:window-maximized="1"
     inkscape:current-layer="svg2"
     fit-margin-top="10"
     fit-margin-left="10"
     fit-margin-right="10"
     fit-margin-bottom="10">
    <inkscape:grid
       type="xygrid"
       id="grid8129"
       originx="-378.30338"
       originy="-413.38839" />
  </sodipodi:namedview>
  <defs
     id="defs4">
    <marker
       inkscape:stockid="Arrow1Mend"
       orient="auto"
       refY="0"
       refX="0"
       id="marker8425"
       style="overflow:visible"
       inkscape:isstock="true">
      <path
         id="path8427"
         d="M 0,0 5,-5 -12.5,0 5,5 0,0 Z"
         style="fill:#000000;fill-opacity:1;fill-rule:evenodd;stroke:#000000;stroke-width:1pt;stroke-opacity:1"
         transform="matrix(-0.4,0,0,-0.4,-4,0)"
         inkscape:connector-curvature="0" />
    </marker>
    <marker
       inkscape:stockid="Arrow1Mend"
       orient="auto"
       refY="0"
       refX="0"
       id="marker8420"
       style="overflow:visible"
       inkscape:isstock="true">
      <path
         id="path8173"
         d="M 0,0 5,-5 -12.5,0 5,5 0,0 Z"
         style="fill:#000000;fill-opacity:1;fill-rule:evenodd;stroke:#000000;stroke-width:1pt;stroke-opacity:1"
         transform="matrix(-0.4,0,0,-0.4,-4,0)"
         inkscape:connector-curvature="0" />
    </marker>
    <marker
       style="overflow:visible"
       id="Arrow1Mend"
       refX="0"
       refY="0"
       orient="auto">
      <path
         transform="matrix(-0.4,0,0,-0.4,-4,0)"
         style="fill:#000000;fill-opacity:1;fill-rule:evenodd;stroke:#000000;stroke-width:1pt;stroke-opacity:1"
         d="M 0,0 5,-5 -12.5,0 5,5 0,0 Z"
         id="path8394"
         inkscape:connector-curvature="0" />
    </marker>
  </defs>
  <metadata
     id="metadata7">
    <rdf:RDF>
      <cc:Work
         rdf:about="">
        <dc:format>image/svg+xml</dc:format>
        <dc:type
           rdf:resource="http://purl.org/dc/dcmitype/StillImage" />
        <dc:title></dc:title>
      </cc:Work>
    </rdf:RDF>
  </metadata>
  <path
     inkscape:connector-curvature="0"
     id="path8187"
     style="fill:#000000;fill-opacity:1;fill-rule:nonzero;stroke:#000000;stroke-width:2;stroke-linecap:square;stroke-miterlimit:4;stroke-dasharray:none;stroke-opacity:1"
     d="m 41.589298,46.128533 0,0 c 3.02875,-6.6925 5.35375,-10.78 8.2675,-9.46125 l 0,0 c 1.92375,0.87125 3.76625,4.2125 6.14125,9.46125 l 0,0 c 3.39625,7.5 5.1375,9.51375 6.6225,8.84125 l 0,0 c 1.3925,-0.63125 3.0525,-3.3875 5.52125,-8.84125 l 0,0 c 3.03,-6.6925 5.35375,-10.78 8.26875,-9.46125 l 0,0 c 1.9225,0.87125 3.76625,4.2125 6.1425,9.46125 l -0.56875,0.25625 0.56875,-0.25625 c 3.39375,7.5 5.135,9.51375 6.62,8.84125 l 0,0 c 1.3925,-0.63125 3.0525,-3.38875 5.52125,-8.84125 l 0.5675,0.25625 -0.5675,-0.25625 c 3.03,-6.6925 5.356252,-10.78 8.268752,-9.46125 l 0,0 c 1.9225,0.87125 3.76625,4.2125 6.1425,9.46125 l -0.5675,0.25625 0.5675,-0.25625 c 3.395,7.5 5.13625,9.51375 6.62,8.84125 l 0,0 c 1.3925,-0.63125 3.05375,-3.38875 5.5225,-8.84125 l 0.56625,0.25625 -0.56625,-0.25625 c 3.03,-6.6925 5.355,-10.78 8.26875,-9.46125 l 0,0 c 1.9225,0.87125 3.765,4.2125 6.14125,9.46125 l 0,0 c 3.395,7.5 5.13625,9.51375 6.62125,8.84125 l 0,0 c 1.3925,-0.63125 3.05375,-3.3875 5.5225,-8.84125 l 0,0 c 3.02875,-6.6925 5.35375,-10.78 8.2675,-9.46125 l 0,0 c 1.92375,0.87125 3.76625,4.2125 6.1425,9.46125 l -0.5675,0.25625 0.5675,-0.25625 c 3.395,7.5 5.13625,9.51375 6.62125,8.84125 l 0,0 c 1.3925,-0.63125 3.0525,-3.38875 5.52125,-8.84125 l 0.5675,0.25625 -0.5675,-0.25625 c 3.03,-6.6925 5.355,-10.78 8.26875,-9.46125 l 0,0 c 1.9225,0.87125 3.765,4.2125 6.1425,9.46125 l -0.56875,0.25625 0.56875,-0.25625 c 3.395,7.5 5.13625,9.51375 6.62,8.84125 l 0,0 c 1.3925,-0.63125 3.0525,-3.38875 5.5225,-8.84125 l 0.25625,-0.5675 1.13375,0.51375 -0.25625,0.56625 c -2.37625,5.25 -4.22,8.5925 -6.1425,9.4625 l 0,0 c -2.9125,1.31875 -5.23875,-2.76875 -8.26875,-9.4625 l 0,0 c -2.4675,-5.4525 -4.12875,-8.20875 -5.52125,-8.84 l 0,0 c -1.485,-0.6725 -3.22625,1.34125 -6.62125,8.84 l 0,0 c -2.37625,5.25 -4.22,8.5925 -6.14125,9.4625 l 0,0 c -2.91375,1.31875 -5.23875,-2.76875 -8.26875,-9.4625 l 0,0 c -2.46875,-5.45125 -4.13,-8.20875 -5.5225,-8.84 l 0,0 c -1.48375,-0.6725 -3.225,1.34125 -6.62,8.84 l -0.5675,-0.25625 0.5675,0.25625 c -2.37625,5.25 -4.22,8.5925 -6.14375,9.4625 l 0,0 c -2.9125,1.31875 -5.23875,-2.76875 -8.2675,-9.4625 l 0.5675,-0.25625 -0.5675,0.25625 c -2.46875,-5.45125 -4.12875,-8.20875 -5.52125,-8.84 l 0,0 c -1.485,-0.6725 -3.22625,1.34125 -6.62125,8.84 l 0,0 c -2.375,5.25 -4.21875,8.5925 -6.1425,9.4625 l 0,0 c -2.9125,1.31875 -5.23875,-2.76875 -8.2675,-9.4625 l 0,0 c -2.46875,-5.4525 -4.12875,-8.20875 -5.52125,-8.84 l 0,0 c -1.485,-0.6725 -3.227502,1.34125 -6.622502,8.84 l 0,0 c -2.37625,5.25 -4.21875,8.5925 -6.14125,9.4625 l 0,0 c -2.91375,1.31875 -5.23875,-2.76875 -8.26875,-9.4625 l 0,0 c -2.46875,-5.45125 -4.13,-8.20875 -5.5225,-8.84 l 0,0 c -1.4825,-0.6725 -3.225,1.34125 -6.62,8.84 l -0.5675,-0.25625 0.5675,0.25625 c -2.37625,5.25 -4.22,8.5925 -6.1425,9.4625 l 0,0 c -2.9125,1.31875 -5.23875,-2.76875 -8.26875,-9.4625 l 0.5675,-0.25625 -0.5675,0.25625 c -2.4675,-5.45125 -4.12875,-8.20875 -5.52125,-8.84 l 0,0 c -1.485,-0.6725 -3.22625,1.34125 -6.62,8.84 l -0.2575,0.56875 -1.135,-0.515" />
  <path
     inkscape:connector-curvature="0"
     id="path8197"
     style="fill:#000000;fill-opacity:1;fill-rule:nonzero;stroke:#000000;stroke-width:2;stroke-linecap:square;stroke-miterlimit:4;stroke-dasharray:none;stroke-opacity:1"
     d="m 41.410738,167.17249 0,0 c 3.02875,6.69238 5.35375,10.78025 8.2675,9.46188 l 0,0 c 1.92375,-0.87113 3.76625,-4.21338 6.14125,-9.46188 l 0,0 c 3.39625,-7.49949 5.1375,-9.51325 6.6225,-8.84137 l 0,0 c 1.3925,0.63138 3.0525,3.38962 5.52125,8.84137 l 0,0 c 3.03,6.69238 5.35375,10.78025 8.26875,9.46188 l 0,0 c 1.9225,-0.87113 3.76625,-4.21338 6.1425,-9.46188 l -0.56875,-0.25637 0.56875,0.25637 c 3.39375,-7.49949 5.135,-9.51325 6.62,-8.84137 l 0,0 c 1.3925,0.63138 3.0525,3.38962 5.52125,8.84137 l 0.5675,-0.25637 -0.5675,0.25637 c 3.03,6.69238 5.35625,10.78025 8.268752,9.46188 l 0,0 c 1.9225,-0.87113 3.76625,-4.21338 6.1425,-9.46188 l -0.5675,-0.25637 0.5675,0.25637 c 3.395,-7.49949 5.13625,-9.51325 6.62,-8.84137 l 0,0 c 1.3925,0.63138 3.05375,3.38962 5.5225,8.84137 l 0.56625,-0.25637 -0.56625,0.25637 c 3.03,6.69238 5.355,10.78025 8.26875,9.46188 l 0,0 c 1.9225,-0.87113 3.765,-4.21338 6.14125,-9.46188 l 0,0 c 3.395,-7.49949 5.13625,-9.51325 6.62125,-8.84137 l 0,0 c 1.3925,0.63138 3.05375,3.38962 5.5225,8.84137 l 0,0 c 3.02875,6.69238 5.35375,10.78025 8.2675,9.46188 l 0,0 c 1.92375,-0.87113 3.76625,-4.21338 6.1425,-9.46188 l -0.5675,-0.25637 0.5675,0.25637 c 3.395,-7.49949 5.13625,-9.51325 6.62125,-8.84137 l 0,0 c 1.3925,0.63138 3.0525,3.38962 5.52125,8.84137 l 0.5675,-0.25637 -0.5675,0.25637 c 3.03,6.69238 5.355,10.78025 8.26875,9.46188 l 0,0 c 1.9225,-0.87113 3.765,-4.21338 6.1425,-9.46188 l -0.56875,-0.25637 0.56875,0.25637 c 3.395,-7.49949 5.13625,-9.51325 6.62,-8.84137 l 0,0 c 1.3925,0.63138 3.0525,3.38962 5.5225,8.84137 l 0.25625,0.56738 1.13375,-0.51425 -0.25625,-0.56588 c -2.37625,-5.24899 -4.22,-8.59225 -6.1425,-9.46237 l 0,0 c -2.9125,-1.31787 -5.23875,2.7695 -8.26875,9.46237 l 0,0 c -2.4675,5.45263 -4.12875,8.2095 -5.52125,8.84088 l 0,0 c -1.485,0.67187 -3.22625,-1.34188 -6.62125,-8.84088 l 0,0 c -2.37625,-5.24899 -4.22,-8.59225 -6.14125,-9.46237 l 0,0 c -2.91375,-1.31938 -5.23875,2.7695 -8.26875,9.46237 l 0,0 c -2.46875,5.45163 -4.13,8.2095 -5.5225,8.84088 l 0,0 c -1.48375,0.67187 -3.225,-1.34188 -6.62,-8.84088 l -0.5675,0.25638 0.5675,-0.25638 c -2.37625,-5.24899 -4.22,-8.59225 -6.14375,-9.46237 l 0,0 c -2.9125,-1.31787 -5.23875,2.7695 -8.2675,9.46237 l 0.5675,0.25638 -0.5675,-0.25638 c -2.46875,5.45163 -4.12875,8.2095 -5.52125,8.84088 l 0,0 c -1.485,0.67187 -3.22625,-1.34188 -6.62125,-8.84088 l 0,0 c -2.375,-5.24899 -4.21875,-8.59225 -6.1425,-9.46237 l 0,0 c -2.9125,-1.31787 -5.23875,2.7695 -8.2675,9.46237 l 0,0 c -2.46875,5.45263 -4.12875,8.2095 -5.52125,8.84088 l 0,0 c -1.485,0.67187 -3.227502,-1.34188 -6.622502,-8.84088 l 0,0 c -2.37625,-5.24899 -4.21875,-8.59225 -6.14125,-9.46237 l 0,0 c -2.91375,-1.31938 -5.23875,2.7695 -8.26875,9.46237 l 0,0 c -2.46875,5.45163 -4.13,8.2095 -5.5225,8.84088 l 0,0 c -1.4825,0.67187 -3.225,-1.34188 -6.62,-8.84088 l -0.5675,0.25638 0.5675,-0.25638 c -2.37625,-5.24899 -4.22,-8.59225 -6.1425,-9.46237 l 0,0 c -2.9125,-1.31787 -5.23875,2.7695 -8.26875,9.46237 l 0.5675,0.25638 -0.5675,-0.25638 c -2.4675,5.45163 -4.12875,8.2095 -5.52125,8.84088 l 0,0 c -1.485,0.67187 -3.22625,-1.34188 -6.62,-8.84088 l -0.2575,-0.56787 -1.135,0.51413" />
  <path
     inkscape:connector-curvature="0"
     style="fill:none;fill-rule:evenodd;stroke:#000000;stroke-width:3;stroke-linecap:butt;stroke-linejoin:miter;stroke-miterlimit:4;stroke-dasharray:none;stroke-opacity:1;marker-mid:url(#Arrow1Mend)"
     d="m 41.696638,166.6899 0,-69.999997 0,-50"
     id="path8379" />
  <path
     style="fill:none;fill-rule:evenodd;stroke:#000000;stroke-width:3;stroke-linecap:butt;stroke-linejoin:miter;stroke-miterlimit:4;stroke-dasharray:none;stroke-opacity:1;marker-mid:url(#marker8420)"
     d="m 201.69664,166.6899 c 0,0 30,-35.96299 30,-60 0,-24.037007 -30,-59.999997 -30,-59.999997"
     id="path8158"
     inkscape:connector-curvature="0"
     sodipodi:nodetypes="czc" />
  <path
     style="fill:none;fill-rule:evenodd;stroke:#000000;stroke-width:3;stroke-linecap:butt;stroke-linejoin:miter;stroke-miterlimit:4;stroke-dasharray:none;stroke-opacity:1;marker-mid:url(#marker8425)"
     d="m 201.69664,46.689903 c 0,0 -30,35.96299 -30,59.999997 0,24.03701 30,60 30,60"
     id="path8423"
     inkscape:connector-curvature="0"
     sodipodi:nodetypes="czc" />
</svg>
